<svg width="50" height="50" viewBox="0 0 50 50" fill="none" xmlns="http://www.w3.org/2000/svg">
<g clip-path="url(#clip0)">
<path d="M29.6719 30.9152C29.6719 31.3282 29.6189 31.7942 29.5179 32.2822C29.2959 33.3632 28.8429 34.5612 28.2269 35.5992C27.9749 36.0262 27.6979 36.4252 27.3959 36.7782C27.2459 36.9542 27.0919 37.1172 26.9309 37.2692C26.8569 37.3382 26.7799 37.4062 26.7029 37.4692C26.6999 37.4752 26.6969 37.4782 26.6919 37.4782V37.4812C26.5469 37.5982 26.3989 37.7082 26.2479 37.8012C26.0669 37.9132 25.8779 38.0102 25.6839 38.0832H23.9049C23.7119 38.0102 23.5179 37.9112 23.3319 37.7962C23.0929 37.6452 22.8619 37.4592 22.6399 37.2482C22.5389 37.1512 22.4369 37.0492 22.3389 36.9402C22.2789 36.8792 22.2269 36.8152 22.1719 36.7482C21.8789 36.4042 21.6079 36.0142 21.3629 35.5992C20.7529 34.5612 20.2999 33.3632 20.0749 32.2822C19.9739 31.7922 19.9219 31.3282 19.9219 30.9152C19.9219 28.2672 22.1039 28.6722 24.7979 28.6722H24.8719C27.5289 28.6652 29.6719 28.2902 29.6719 30.9152Z" fill="#D73D8C"/>
<path fill-rule="evenodd" clip-rule="evenodd" d="M22.6332 38.7805C21.0152 40.1775 19.2012 41.0545 17.4662 41.3615C15.4722 41.7155 13.5732 41.3285 12.1212 40.1635L11.9592 40.0305C9.87825 38.2935 8.74925 35.9475 9.01225 33.1045C7.84025 33.6285 6.49725 33.5085 5.20225 32.9935C3.19325 32.1915 1.31825 30.4375 0.592246 29.3255C-0.619754 27.4705 0.377246 25.4595 0.540246 25.1625C0.540246 25.1625 7.07825 11.7615 7.07525 11.7705C7.17125 11.5115 7.63825 10.3215 8.42925 9.3475C9.13625 8.4785 10.0922 7.8125 11.2142 7.8125H38.4752C39.5972 7.8125 40.5542 8.4785 41.2602 9.3475C42.0512 10.3215 42.5182 11.5115 42.6142 11.7705C42.6112 11.7615 49.1492 25.1625 49.1492 25.1625C49.3122 25.4595 50.3092 27.4705 49.0972 29.3255C48.3712 30.4375 46.4962 32.1915 44.4872 32.9935C43.2102 33.5025 41.8862 33.6255 40.7252 33.1255L40.7312 33.1675L40.7692 33.9965L40.7202 34.8365C40.4772 36.9695 39.3632 38.7555 37.5912 40.1765C36.1432 41.3385 34.1972 41.7265 32.1452 41.3715C31.8192 41.3145 31.4902 41.2395 31.1602 41.1445C29.7032 40.7295 28.2272 39.9515 26.8902 38.8375C27.0522 38.7275 27.2122 38.6045 27.3682 38.4745V38.4705C27.3762 38.4705 27.3802 38.4675 27.3852 38.4585C27.4892 38.3725 27.5932 38.2785 27.6932 38.1835C27.8232 38.0585 27.9502 37.9275 28.0752 37.7915C29.4402 38.8825 30.9542 39.5785 32.4122 39.8315C32.8072 39.8995 33.1972 39.9345 33.5782 39.9365H33.6492C34.7642 39.9255 35.7952 39.6145 36.6142 38.9575C38.0452 37.8095 38.9712 36.3825 39.1672 34.6595C39.2192 34.2055 39.2212 33.7325 39.1702 33.2415C39.0222 31.7975 38.4242 30.1915 37.3172 28.4145L37.0282 27.9425C34.7962 24.4585 30.3402 21.2795 24.9262 21.2795C19.0782 21.2795 15.1452 24.1085 12.9222 27.4685L12.4792 28.1825C9.55525 32.8725 10.1742 36.5995 13.0982 38.9445C13.8292 39.5305 14.7122 39.8435 15.6642 39.9105L16.1362 39.9245C16.4832 39.9215 16.8362 39.8875 17.1942 39.8235C18.6332 39.5685 20.1222 38.8505 21.4702 37.7225L21.4772 37.7305C21.6112 37.8805 21.7482 38.0205 21.8862 38.1555C22.1262 38.3895 22.3752 38.5995 22.6332 38.7805ZM13.8492 9.6875H11.2142C10.6592 9.6875 10.2342 10.1005 9.88525 10.5295C9.19525 11.3775 8.82725 12.4375 8.82725 12.4375C8.81525 12.4725 8.80125 12.5065 8.78525 12.5405L2.21925 25.9945C2.20825 26.0185 2.19525 26.0425 2.18125 26.0655C2.18125 26.0655 1.46425 27.2305 2.16225 28.3005C2.74825 29.1985 4.27325 30.6035 5.89725 31.2515C6.72525 31.5815 7.58425 31.7285 8.32325 31.3555C8.70225 31.1655 9.55025 30.1435 10.0722 29.3505C10.2912 28.8735 10.5442 28.3865 10.8332 27.8895C10.9342 27.7155 11.0382 27.5415 11.1472 27.3655L11.4982 26.7915C11.4912 26.6595 11.4872 26.5275 11.4872 26.3935V14.7475C11.4872 12.7165 12.4042 10.8985 13.8492 9.6875ZM36.2202 9.6875C37.6642 10.8985 38.5832 12.7165 38.5832 14.7475V14.7485C38.5832 14.7485 38.5662 27.1185 38.5662 27.1175C38.5662 27.2425 38.5582 27.3435 38.5462 27.4255L38.8002 27.8455L39.3022 28.7315L39.5662 29.2725C40.0822 30.0735 40.9742 31.1585 41.3662 31.3555C42.1052 31.7285 42.9642 31.5815 43.7922 31.2515C45.4162 30.6035 46.9412 29.1985 47.5272 28.3005C48.2252 27.2305 47.5082 26.0655 47.5082 26.0655C47.4942 26.0425 47.4812 26.0185 47.4702 25.9945L40.9042 12.5405C40.8882 12.5065 40.8742 12.4725 40.8622 12.4375C40.8622 12.4375 40.4942 11.3775 39.8042 10.5295C39.4552 10.1005 39.0322 9.6875 38.4752 9.6875H36.2202ZM37.0052 25.3235L37.0202 14.7475C37.0202 11.9645 34.7612 9.7045 31.9772 9.7045H18.0912C15.3092 9.7045 13.0492 11.9645 13.0492 14.7475V24.7575C15.6352 21.8895 19.5472 19.7175 24.9262 19.7175C29.9902 19.7175 34.2982 22.2255 37.0052 25.3235Z" fill="#D73D8C"/>
<path d="M17.6686 18.4036C17.0366 12.9653 22.2645 12.2352 22.8965 17.6735" stroke="#D73D8C" stroke-miterlimit="1.5" stroke-linecap="round" stroke-linejoin="round"/>
<path d="M31.9408 18.4036C32.5728 12.9653 27.3449 12.2352 26.7129 17.6735" stroke="#D73D8C" stroke-miterlimit="1.5" stroke-linecap="round" stroke-linejoin="round"/>
</g>
<defs>
<clipPath id="clip0">
<rect width="50" height="50" fill="white"/>
</clipPath>
</defs>
</svg>
