<svg width="246" height="50" viewBox="0 0 246 50" fill="none" xmlns="http://www.w3.org/2000/svg">
<path d="M55.1136 33H57.2273V25.1932H64.7955V23.3182H57.2273V17.4205H65.5795V15.5455H55.1136V33ZM71.3132 15.5455H69.1996V33H71.3132V15.5455ZM89.392 15.5455H87.3125V29.2841H87.142L77.5966 15.5455H75.5511V33H77.6648V19.2955H77.8352L87.3466 33H89.392V15.5455ZM99.0078 33C104.326 33 107.326 29.6932 107.326 24.2386C107.326 18.8182 104.326 15.5455 99.2464 15.5455H93.6214V33H99.0078ZM95.7351 31.125V17.4205H99.1101C103.201 17.4205 105.281 20.0114 105.281 24.2386C105.281 28.5 103.201 31.125 98.8714 31.125H95.7351ZM112.371 15.5455H110.462V17.1136C110.462 18.375 109.849 19.4659 109.133 20.4886L110.224 21.375C111.587 20.2841 112.371 18.4773 112.371 17.0795V15.5455ZM117.521 33.3068C119.805 33.3068 120.999 32.0795 121.408 31.2273H121.51V33H123.521V24.375C123.521 20.2159 120.351 19.7386 118.68 19.7386C116.703 19.7386 114.453 20.4205 113.43 22.8068L115.339 23.4886C115.783 22.5341 116.831 21.5114 118.749 21.5114C120.598 21.5114 121.51 22.4915 121.51 24.1705V24.2386C121.51 25.2102 120.521 25.125 118.135 25.4318C115.706 25.7472 113.055 26.2841 113.055 29.2841C113.055 31.8409 115.033 33.3068 117.521 33.3068ZM117.828 31.5C116.226 31.5 115.067 30.7841 115.067 29.3864C115.067 27.8523 116.464 27.375 118.033 27.1705C118.885 27.0682 121.169 26.8295 121.51 26.4205V28.2614C121.51 29.8977 120.214 31.5 117.828 31.5ZM133.687 33.297C133.309 33.297 133.066 32.946 132.958 32.244C132.904 31.938 132.877 31.659 132.877 31.407V30.813C132.823 30.219 132.796 29.643 132.796 29.085C132.724 27.429 132.661 26.259 132.607 25.575C132.607 25.269 132.589 24.945 132.553 24.603C132.517 24.243 132.49 23.991 132.472 23.847V15.315C132.472 15.153 132.535 15.054 132.661 15.018H132.823L132.904 15.045C133.534 15.045 134.362 15.018 135.388 14.964C136.756 14.928 137.899 14.91 138.817 14.91H139.087C139.195 14.928 139.375 14.937 139.627 14.937H140.113H140.383C140.923 14.937 141.346 14.946 141.652 14.964H144.433C144.775 15 145.333 15.018 146.107 15.018C146.251 15.018 146.359 15.027 146.431 15.045C146.575 15.081 146.737 15.099 146.917 15.099C146.989 15.099 147.061 15.072 147.133 15.018C147.547 15.018 147.772 15.396 147.808 16.152C147.844 16.404 147.862 16.593 147.862 16.719C147.862 16.827 147.844 17.043 147.808 17.367C147.79 17.655 147.781 18.114 147.781 18.744C147.781 18.942 147.61 19.059 147.268 19.095C147.178 19.113 147.025 19.122 146.809 19.122H146.431H145.216L144.406 19.149C144.226 19.203 143.947 19.23 143.569 19.23C143.191 19.23 142.975 19.221 142.921 19.203C142.867 19.221 142.822 19.239 142.786 19.257C142.768 19.275 142.75 19.284 142.732 19.284C142.732 19.32 142.723 19.356 142.705 19.392C142.687 19.428 142.678 19.482 142.678 19.554C142.66 19.68 142.615 20.148 142.543 20.958C142.525 21.192 142.516 21.606 142.516 22.2L142.489 22.254C142.489 22.326 142.525 22.407 142.597 22.497H145.837C146.053 22.497 146.206 22.524 146.296 22.578C146.404 22.632 146.485 22.731 146.539 22.875C146.611 23.091 146.647 23.649 146.647 24.549V25.845V26.574C146.611 26.736 146.557 26.844 146.485 26.898C146.431 26.952 146.35 26.979 146.242 26.979C146.098 26.979 145.963 26.997 145.837 27.033L144.622 27.114H144.082C143.812 27.114 143.632 27.132 143.542 27.168C143.416 27.204 143.245 27.231 143.029 27.249H142.651C142.363 27.249 142.165 27.285 142.057 27.357C141.967 27.375 141.877 27.465 141.787 27.627C141.787 29.265 141.769 30.381 141.733 30.975C141.715 31.839 141.625 32.469 141.463 32.865C141.139 32.865 140.671 32.883 140.059 32.919C139.771 32.919 139.582 32.937 139.492 32.973H139.222H139.168C139.096 32.973 139.042 32.964 139.006 32.946C138.97 32.928 138.934 32.919 138.898 32.919L138.817 32.892C138.817 32.874 138.781 32.865 138.709 32.865C138.691 32.865 138.655 32.874 138.601 32.892C138.565 32.91 138.529 32.937 138.493 32.973H136.252C136.234 32.991 136.189 33 136.117 33C136.063 33.018 135.982 33.045 135.874 33.081L134.227 33.27L133.687 33.297ZM159.151 33C157.297 33 155.947 32.991 155.101 32.973C154.327 32.973 153.733 32.964 153.319 32.946L151.105 32.919C150.943 32.919 150.79 32.847 150.646 32.703C150.502 32.559 150.43 32.406 150.43 32.244V26.304V23.712L150.403 21.498C150.403 20.76 150.421 19.833 150.457 18.717C150.457 18.483 150.484 17.88 150.538 16.908V16.287C150.538 15.783 150.637 15.378 150.835 15.072C150.925 14.91 151.069 14.829 151.267 14.829C152.149 14.829 153.112 14.847 154.156 14.883C154.3 14.901 154.507 14.91 154.777 14.91C155.371 14.91 155.812 14.919 156.1 14.937H157.558C157.63 14.937 157.837 14.937 158.179 14.937C158.539 14.937 158.818 14.982 159.016 15.072C159.34 15.252 159.502 15.666 159.502 16.314L159.475 16.53C159.475 16.584 159.457 16.719 159.421 16.935C159.367 17.205 159.34 17.403 159.34 17.529C159.34 17.727 159.367 17.979 159.421 18.285C159.457 18.501 159.475 18.645 159.475 18.717L159.502 18.879V22.659V24.414V26.088V26.412C159.502 26.556 159.583 26.646 159.745 26.682C159.799 26.7 159.916 26.709 160.096 26.709H162.067C162.553 26.691 163.291 26.682 164.281 26.682C164.479 26.682 164.641 26.745 164.767 26.871C164.893 26.979 164.956 27.096 164.956 27.222V32.379V32.433C164.956 32.577 164.884 32.694 164.74 32.784C164.578 32.856 164.389 32.901 164.173 32.919C163.939 32.973 163.57 33 163.066 33H159.151ZM177.511 33.648C175.369 33.648 173.677 33.477 172.435 33.135C170.707 32.685 169.393 31.848 168.493 30.624C167.449 29.166 166.927 27.141 166.927 24.549C166.927 22.695 167.134 21.12 167.548 19.824C167.962 18.528 168.601 17.466 169.465 16.638C170.329 15.81 171.436 15.207 172.786 14.829C174.154 14.433 175.819 14.235 177.781 14.235C179.311 14.235 180.751 14.469 182.101 14.937C183.757 15.531 185.044 16.44 185.962 17.664C187.096 19.122 187.663 21.039 187.663 23.415C187.663 26.187 187.249 28.347 186.421 29.895C185.593 31.317 184.396 32.325 182.83 32.919C181.552 33.405 179.779 33.648 177.511 33.648ZM177.295 31.029C177.511 31.029 177.682 30.894 177.808 30.624C178.078 30.048 178.267 29.139 178.375 27.897C178.483 26.763 178.537 25.692 178.537 24.684V23.604V22.929C178.537 22.137 178.483 21.174 178.375 20.04C178.267 18.816 178.078 17.889 177.808 17.259C177.664 16.953 177.493 16.8 177.295 16.8C176.899 16.8 176.611 17.178 176.431 17.934C176.251 18.978 176.161 19.923 176.161 20.769C176.107 21.489 176.08 22.614 176.08 24.144C176.08 25.17 176.107 26.016 176.161 26.682C176.161 27.528 176.251 28.509 176.431 29.625C176.611 30.561 176.899 31.029 177.295 31.029ZM200.714 33.648C198.572 33.648 196.88 33.477 195.638 33.135C193.91 32.685 192.596 31.848 191.696 30.624C190.652 29.166 190.13 27.141 190.13 24.549C190.13 22.695 190.337 21.12 190.751 19.824C191.165 18.528 191.804 17.466 192.668 16.638C193.532 15.81 194.639 15.207 195.989 14.829C197.357 14.433 199.022 14.235 200.984 14.235C202.514 14.235 203.954 14.469 205.304 14.937C206.96 15.531 208.247 16.44 209.165 17.664C210.299 19.122 210.866 21.039 210.866 23.415C210.866 26.187 210.452 28.347 209.624 29.895C208.796 31.317 207.599 32.325 206.033 32.919C204.755 33.405 202.982 33.648 200.714 33.648ZM200.498 31.029C200.714 31.029 200.885 30.894 201.011 30.624C201.281 30.048 201.47 29.139 201.578 27.897C201.686 26.763 201.74 25.692 201.74 24.684V23.604V22.929C201.74 22.137 201.686 21.174 201.578 20.04C201.47 18.816 201.281 17.889 201.011 17.259C200.867 16.953 200.696 16.8 200.498 16.8C200.102 16.8 199.814 17.178 199.634 17.934C199.454 18.978 199.364 19.923 199.364 20.769C199.31 21.489 199.283 22.614 199.283 24.144C199.283 25.17 199.31 26.016 199.364 26.682C199.364 27.528 199.454 28.509 199.634 29.625C199.814 30.561 200.102 31.029 200.498 31.029ZM214.872 33.297C214.494 33.297 214.251 32.946 214.143 32.244C214.089 31.938 214.062 31.659 214.062 31.407V30.813C214.008 30.219 213.981 29.643 213.981 29.085C213.909 27.429 213.846 26.259 213.792 25.575C213.792 25.269 213.774 24.945 213.738 24.603C213.702 24.243 213.675 23.991 213.657 23.847V15.315C213.657 15.153 213.72 15.054 213.846 15.018H214.008L214.089 15.045C214.719 15.045 215.547 15.018 216.573 14.964C217.941 14.928 219.084 14.91 220.002 14.91H220.272C220.38 14.928 220.56 14.937 220.812 14.937H221.298H221.568C222.108 14.937 222.531 14.946 222.837 14.964H225.618C225.96 15 226.518 15.018 227.292 15.018C227.436 15.018 227.544 15.027 227.616 15.045C227.76 15.081 227.922 15.099 228.102 15.099C228.174 15.099 228.246 15.072 228.318 15.018C228.732 15.018 228.957 15.396 228.993 16.152C229.029 16.404 229.047 16.593 229.047 16.719C229.047 16.827 229.029 17.043 228.993 17.367C228.975 17.655 228.966 18.114 228.966 18.744C228.966 18.942 228.795 19.059 228.453 19.095C228.363 19.113 228.21 19.122 227.994 19.122H227.616H226.401L225.591 19.149C225.411 19.203 225.132 19.23 224.754 19.23C224.376 19.23 224.16 19.221 224.106 19.203C224.052 19.221 224.007 19.239 223.971 19.257C223.953 19.275 223.935 19.284 223.917 19.284C223.917 19.32 223.908 19.356 223.89 19.392C223.872 19.428 223.863 19.482 223.863 19.554C223.845 19.68 223.8 20.148 223.728 20.958C223.71 21.192 223.701 21.606 223.701 22.2L223.674 22.254C223.674 22.326 223.71 22.407 223.782 22.497H227.022C227.238 22.497 227.391 22.524 227.481 22.578C227.589 22.632 227.67 22.731 227.724 22.875C227.796 23.091 227.832 23.649 227.832 24.549V25.845V26.574C227.796 26.736 227.742 26.844 227.67 26.898C227.616 26.952 227.535 26.979 227.427 26.979C227.283 26.979 227.148 26.997 227.022 27.033L225.807 27.114H225.267C224.997 27.114 224.817 27.132 224.727 27.168C224.601 27.204 224.43 27.231 224.214 27.249H223.836C223.548 27.249 223.35 27.285 223.242 27.357C223.152 27.375 223.062 27.465 222.972 27.627C222.972 29.265 222.954 30.381 222.918 30.975C222.9 31.839 222.81 32.469 222.648 32.865C222.324 32.865 221.856 32.883 221.244 32.919C220.956 32.919 220.767 32.937 220.677 32.973H220.407H220.353C220.281 32.973 220.227 32.964 220.191 32.946C220.155 32.928 220.119 32.919 220.083 32.919L220.002 32.892C220.002 32.874 219.966 32.865 219.894 32.865C219.876 32.865 219.84 32.874 219.786 32.892C219.75 32.91 219.714 32.937 219.678 32.973H217.437C217.419 32.991 217.374 33 217.302 33C217.248 33.018 217.167 33.045 217.059 33.081L215.412 33.27L214.872 33.297Z" fill="#44337A"/>
<g clip-path="url(#clip0)">
<path d="M29.6719 30.9152C29.6719 31.3282 29.6189 31.7942 29.5179 32.2822C29.2959 33.3632 28.8429 34.5612 28.2269 35.5992C27.9749 36.0262 27.6979 36.4252 27.3959 36.7782C27.2459 36.9542 27.0919 37.1172 26.9309 37.2692C26.8569 37.3382 26.7799 37.4062 26.7029 37.4692C26.6999 37.4752 26.6969 37.4782 26.6919 37.4782V37.4812C26.5469 37.5982 26.3989 37.7082 26.2479 37.8012C26.0669 37.9132 25.8779 38.0102 25.6839 38.0832H23.9049C23.7119 38.0102 23.5179 37.9112 23.3319 37.7962C23.0929 37.6452 22.8619 37.4592 22.6399 37.2482C22.5389 37.1512 22.4369 37.0492 22.3389 36.9402C22.2789 36.8792 22.2269 36.8152 22.1719 36.7482C21.8789 36.4042 21.6079 36.0142 21.3629 35.5992C20.7529 34.5612 20.2999 33.3632 20.0749 32.2822C19.9739 31.7922 19.9219 31.3282 19.9219 30.9152C19.9219 28.2672 22.1039 28.6722 24.7979 28.6722H24.8719C27.5289 28.6652 29.6719 28.2902 29.6719 30.9152Z" fill="#D73D8C"/>
<path fill-rule="evenodd" clip-rule="evenodd" d="M22.6332 38.7805C21.0152 40.1775 19.2012 41.0545 17.4662 41.3615C15.4722 41.7155 13.5732 41.3285 12.1212 40.1635L11.9592 40.0305C9.87825 38.2935 8.74925 35.9475 9.01225 33.1045C7.84025 33.6285 6.49725 33.5085 5.20225 32.9935C3.19325 32.1915 1.31825 30.4375 0.592246 29.3255C-0.619754 27.4705 0.377246 25.4595 0.540246 25.1625C0.540246 25.1625 7.07825 11.7615 7.07525 11.7705C7.17125 11.5115 7.63825 10.3215 8.42925 9.3475C9.13625 8.4785 10.0922 7.8125 11.2142 7.8125H38.4752C39.5972 7.8125 40.5542 8.4785 41.2602 9.3475C42.0512 10.3215 42.5182 11.5115 42.6142 11.7705C42.6112 11.7615 49.1492 25.1625 49.1492 25.1625C49.3122 25.4595 50.3092 27.4705 49.0972 29.3255C48.3712 30.4375 46.4962 32.1915 44.4872 32.9935C43.2102 33.5025 41.8862 33.6255 40.7252 33.1255L40.7312 33.1675L40.7692 33.9965L40.7202 34.8365C40.4772 36.9695 39.3632 38.7555 37.5912 40.1765C36.1432 41.3385 34.1972 41.7265 32.1452 41.3715C31.8192 41.3145 31.4902 41.2395 31.1602 41.1445C29.7032 40.7295 28.2272 39.9515 26.8902 38.8375C27.0522 38.7275 27.2122 38.6045 27.3682 38.4745V38.4705C27.3762 38.4705 27.3802 38.4675 27.3852 38.4585C27.4892 38.3725 27.5932 38.2785 27.6932 38.1835C27.8232 38.0585 27.9502 37.9275 28.0752 37.7915C29.4402 38.8825 30.9542 39.5785 32.4122 39.8315C32.8072 39.8995 33.1972 39.9345 33.5782 39.9365H33.6492C34.7642 39.9255 35.7952 39.6145 36.6142 38.9575C38.0452 37.8095 38.9712 36.3825 39.1672 34.6595C39.2192 34.2055 39.2212 33.7325 39.1702 33.2415C39.0222 31.7975 38.4242 30.1915 37.3172 28.4145L37.0282 27.9425C34.7962 24.4585 30.3402 21.2795 24.9262 21.2795C19.0782 21.2795 15.1452 24.1085 12.9222 27.4685L12.4792 28.1825C9.55525 32.8725 10.1742 36.5995 13.0982 38.9445C13.8292 39.5305 14.7122 39.8435 15.6642 39.9105L16.1362 39.9245C16.4832 39.9215 16.8362 39.8875 17.1942 39.8235C18.6332 39.5685 20.1222 38.8505 21.4702 37.7225L21.4772 37.7305C21.6112 37.8805 21.7482 38.0205 21.8862 38.1555C22.1262 38.3895 22.3752 38.5995 22.6332 38.7805ZM13.8492 9.6875H11.2142C10.6592 9.6875 10.2342 10.1005 9.88525 10.5295C9.19525 11.3775 8.82725 12.4375 8.82725 12.4375C8.81525 12.4725 8.80125 12.5065 8.78525 12.5405L2.21925 25.9945C2.20825 26.0185 2.19525 26.0425 2.18125 26.0655C2.18125 26.0655 1.46425 27.2305 2.16225 28.3005C2.74825 29.1985 4.27325 30.6035 5.89725 31.2515C6.72525 31.5815 7.58425 31.7285 8.32325 31.3555C8.70225 31.1655 9.55025 30.1435 10.0722 29.3505C10.2912 28.8735 10.5442 28.3865 10.8332 27.8895C10.9342 27.7155 11.0382 27.5415 11.1472 27.3655L11.4982 26.7915C11.4912 26.6595 11.4872 26.5275 11.4872 26.3935V14.7475C11.4872 12.7165 12.4042 10.8985 13.8492 9.6875ZM36.2202 9.6875C37.6642 10.8985 38.5832 12.7165 38.5832 14.7475V14.7485C38.5832 14.7485 38.5662 27.1185 38.5662 27.1175C38.5662 27.2425 38.5582 27.3435 38.5462 27.4255L38.8002 27.8455L39.3022 28.7315L39.5662 29.2725C40.0822 30.0735 40.9742 31.1585 41.3662 31.3555C42.1052 31.7285 42.9642 31.5815 43.7922 31.2515C45.4162 30.6035 46.9412 29.1985 47.5272 28.3005C48.2252 27.2305 47.5082 26.0655 47.5082 26.0655C47.4942 26.0425 47.4812 26.0185 47.4702 25.9945L40.9042 12.5405C40.8882 12.5065 40.8742 12.4725 40.8622 12.4375C40.8622 12.4375 40.4942 11.3775 39.8042 10.5295C39.4552 10.1005 39.0322 9.6875 38.4752 9.6875H36.2202ZM37.0052 25.3235L37.0202 14.7475C37.0202 11.9645 34.7612 9.7045 31.9772 9.7045H18.0912C15.3092 9.7045 13.0492 11.9645 13.0492 14.7475V24.7575C15.6352 21.8895 19.5472 19.7175 24.9262 19.7175C29.9902 19.7175 34.2982 22.2255 37.0052 25.3235Z" fill="#D73D8C"/>
<path d="M17.6686 18.4036C17.0366 12.9653 22.2645 12.2352 22.8965 17.6735" stroke="#D73D8C" stroke-miterlimit="1.5" stroke-linecap="round" stroke-linejoin="round"/>
<path d="M31.9408 18.4036C32.5728 12.9653 27.3449 12.2352 26.7129 17.6735" stroke="#D73D8C" stroke-miterlimit="1.5" stroke-linecap="round" stroke-linejoin="round"/>
</g>
<defs>
<clipPath id="clip0">
<rect width="50" height="50" fill="white"/>
</clipPath>
</defs>
</svg>
