<svg width="244" height="47" viewBox="0 0 244 47" fill="none" xmlns="http://www.w3.org/2000/svg">
<path d="M53.765 30H55.8786V22.1932H63.4468V20.3182H55.8786V14.4205H64.2309V12.5455H53.765V30ZM69.9646 12.5455H67.8509V30H69.9646V12.5455ZM88.0434 12.5455H85.9639V26.2841H85.7934L76.248 12.5455H74.2025V30H76.3161V16.2955H76.4866L85.998 30H88.0434V12.5455ZM97.6592 30C102.977 30 105.977 26.6932 105.977 21.2386C105.977 15.8182 102.977 12.5455 97.8978 12.5455H92.2728V30H97.6592ZM94.3865 28.125V14.4205H97.7615C101.852 14.4205 103.932 17.0114 103.932 21.2386C103.932 25.5 101.852 28.125 97.5228 28.125H94.3865ZM111.023 12.5455H109.114V14.1136C109.114 15.375 108.5 16.4659 107.784 17.4886L108.875 18.375C110.239 17.2841 111.023 15.4773 111.023 14.0795V12.5455ZM116.173 30.3068C118.457 30.3068 119.65 29.0795 120.059 28.2273H120.161V30H122.173V21.375C122.173 17.2159 119.002 16.7386 117.332 16.7386C115.354 16.7386 113.104 17.4205 112.082 19.8068L113.991 20.4886C114.434 19.5341 115.482 18.5114 117.4 18.5114C119.249 18.5114 120.161 19.4915 120.161 21.1705V21.2386C120.161 22.2102 119.173 22.125 116.786 22.4318C114.357 22.7472 111.707 23.2841 111.707 26.2841C111.707 28.8409 113.684 30.3068 116.173 30.3068ZM116.479 28.5C114.877 28.5 113.718 27.7841 113.718 26.3864C113.718 24.8523 115.116 24.375 116.684 24.1705C117.536 24.0682 119.82 23.8295 120.161 23.4205V25.2614C120.161 26.8977 118.866 28.5 116.479 28.5ZM130.683 30H135.421V23.1818H142.205V19.3636H135.421V16.3636H142.955V12.5455H130.683V30ZM144.698 30H156.494V26.1818H149.437V12.5455H144.698V30ZM174.639 21.2727C174.639 15.4432 170.889 12.3068 166.15 12.3068C161.377 12.3068 157.661 15.4432 157.661 21.2727C157.661 27.0682 161.377 30.2386 166.15 30.2386C170.889 30.2386 174.639 27.1023 174.639 21.2727ZM169.764 21.2727C169.764 24.4091 168.502 26.1136 166.15 26.1136C163.798 26.1136 162.536 24.4091 162.536 21.2727C162.536 18.1364 163.798 16.4318 166.15 16.4318C168.502 16.4318 169.764 18.1364 169.764 21.2727ZM193.74 21.2727C193.74 15.4432 189.99 12.3068 185.252 12.3068C180.479 12.3068 176.763 15.4432 176.763 21.2727C176.763 27.0682 180.479 30.2386 185.252 30.2386C189.99 30.2386 193.74 27.1023 193.74 21.2727ZM188.865 21.2727C188.865 24.4091 187.604 26.1136 185.252 26.1136C182.899 26.1136 181.638 24.4091 181.638 21.2727C181.638 18.1364 182.899 16.4318 185.252 16.4318C187.604 16.4318 188.865 18.1364 188.865 21.2727ZM195.933 30H200.671V23.1818H207.455V19.3636H200.671V16.3636H208.205V12.5455H195.933V30Z" fill="#44337A"/>
<path d="M28.1325 28.8271C28.1325 29.2312 28.0822 29.6864 27.9847 30.1632C27.7719 31.2178 27.3374 32.3882 26.7464 33.4024C26.504 33.8186 26.238 34.2092 25.9484 34.554C25.8036 34.7264 25.6557 34.8853 25.5021 35.0334C25.4311 35.1008 25.3573 35.1668 25.2833 35.2287C25.2804 35.2341 25.2774 35.2368 25.2716 35.2368V35.2395C25.1326 35.3553 24.9908 35.4618 24.846 35.5533C24.6716 35.6624 24.4914 35.7567 24.3051 35.8281H22.5969C22.4107 35.7567 22.2245 35.6597 22.0471 35.548C21.8166 35.3998 21.5949 35.2193 21.3821 35.0133C21.2846 34.9176 21.1871 34.818 21.0926 34.7116C21.0364 34.6523 20.9862 34.5903 20.933 34.5243C20.6521 34.1876 20.3921 33.8065 20.1557 33.4024C19.5705 32.3882 19.136 31.2178 18.9202 30.1632C18.8227 29.6837 18.7725 29.2312 18.7725 28.8271C18.7725 26.2411 20.8679 26.6371 23.454 26.6371H23.5249C26.0755 26.6304 28.1325 26.264 28.1325 28.8271Z" fill="#D73D8C"/>
<path d="M18.9598 18.6508C20.6096 18.6508 21.947 16.8594 21.947 14.6496C21.947 12.4398 20.6096 10.6484 18.9598 10.6484C17.3101 10.6484 15.9727 12.4398 15.9727 14.6496C15.9727 16.8594 17.3101 18.6508 18.9598 18.6508Z" stroke="#D73D8C" stroke-miterlimit="1.5" stroke-linecap="round" stroke-linejoin="round"/>
<path fill-rule="evenodd" clip-rule="evenodd" d="M19.0263 13.9359C20.4328 13.9359 21.5748 15.0534 21.5748 16.4298C21.5748 17.8061 20.4328 18.9236 19.0263 18.9236C17.6196 18.9236 16.4775 17.8061 16.4775 16.4298C16.4775 15.0534 17.6196 13.9359 19.0263 13.9359ZM19.9275 14.5527C20.1393 14.5527 20.3112 14.7123 20.3112 14.9092C20.3112 15.1057 20.1393 15.2654 19.9275 15.2654C19.7158 15.2654 19.5439 15.1057 19.5439 14.9092C19.5439 14.7123 19.7158 14.5527 19.9275 14.5527Z" fill="#D73D8C"/>
<path d="M27.8641 18.6508C29.5139 18.6508 30.8513 16.8594 30.8513 14.6496C30.8513 12.4398 29.5139 10.6484 27.8641 10.6484C26.2144 10.6484 24.877 12.4398 24.877 14.6496C24.877 16.8594 26.2144 18.6508 27.8641 18.6508Z" stroke="#D73D8C" stroke-miterlimit="1.5" stroke-linecap="round" stroke-linejoin="round"/>
<path fill-rule="evenodd" clip-rule="evenodd" d="M27.9306 13.9359C29.3371 13.9359 30.4791 15.0534 30.4791 16.4298C30.4791 17.8061 29.3371 18.9236 27.9306 18.9236C26.5239 18.9236 25.3818 17.8061 25.3818 16.4298C25.3818 15.0534 26.5239 13.9359 27.9306 13.9359ZM28.8318 14.5527C29.0436 14.5527 29.2155 14.7123 29.2155 14.9092C29.2155 15.1057 29.0436 15.2654 28.8318 15.2654C28.6201 15.2654 28.4482 15.1057 28.4482 14.9092C28.4482 14.7123 28.6201 14.5527 28.8318 14.5527Z" fill="#D73D8C"/>
<path d="M11.4048 27.2461C11.3744 27.303 11.345 27.3596 11.3162 27.4161C11.2752 27.497 11.2367 27.5765 11.1985 27.6544C11.1973 27.6557 11.196 27.6586 11.196 27.6599C10.863 28.3374 10.5896 29.0443 10.3752 29.7662C10.3054 30.0008 10.2434 30.2378 10.1865 30.4734C10.1202 30.7469 10.074 30.9851 10.0397 31.2237C10.0252 31.3245 10.0119 31.427 10.0012 31.5295C9.95922 31.9212 9.94468 32.3482 9.93013 32.9556H9.92593C10.1532 35.7963 12.5384 38.0335 15.4379 38.0335C16.8418 38.0335 18.1477 37.6104 19.1675 36.8698C19.7174 36.467 20.1871 35.9699 20.5391 35.3948C20.5656 35.4272 20.5921 35.4569 20.6215 35.4863C20.6778 35.5416 20.7311 35.5982 20.787 35.6508C21.0563 35.912 21.3339 36.1302 21.6178 36.3106C21.4668 36.5317 21.3013 36.7483 21.1242 36.9545C21.1093 36.972 21.0973 36.9868 21.0828 37.0017C20.938 37.1701 20.7841 37.3301 20.6215 37.484C19.2797 38.7728 17.4356 39.5822 15.4379 39.5822C12.8309 39.5822 10.5524 38.1693 9.31985 36.0682C9.29625 36.0239 9.26974 35.9793 9.24614 35.935C9.12169 35.71 9.01276 35.4824 8.91223 35.2494C8.89154 35.1996 8.87376 35.1524 8.85307 35.1039C8.81751 35.0095 8.77905 34.9126 8.74673 34.8185C8.72895 34.7671 8.71408 34.7202 8.6963 34.6701C8.66689 34.5731 8.63715 34.4749 8.60773 34.374V34.3711C8.5809 34.2741 8.5573 34.1733 8.53371 34.0708C8.51011 33.97 8.48943 33.8662 8.47165 33.7624V33.7599C8.45096 33.6438 8.43318 33.5294 8.41863 33.4137C8.38016 33.1159 8.35947 32.8144 8.35947 32.5073C8.35947 32.4452 8.36239 32.3861 8.36239 32.324C8.36497 32.2723 8.36723 32.2199 8.36982 32.1663L0 24.3081L8.67368 7.39393H29.5919V7.38391H38.3034L46.9774 24.2981L38.583 32.1792C38.5882 32.2881 38.5908 32.3974 38.5908 32.5073C38.5908 32.8144 38.5704 33.1159 38.5349 33.4137C38.5171 33.5294 38.5022 33.6438 38.4815 33.7599V33.7624C38.4608 33.8662 38.4402 33.97 38.4195 34.0708C38.393 34.1733 38.3694 34.2741 38.3425 34.3711V34.374C38.316 34.4749 38.2834 34.5731 38.254 34.6701C38.2391 34.7202 38.2213 34.7671 38.2068 34.8185C38.1712 34.9126 38.1357 35.0095 38.0972 35.1039C38.0797 35.1524 38.059 35.1996 38.0413 35.2494C37.9999 35.3409 37.9585 35.4352 37.9142 35.5267C37.8493 35.6654 37.7781 35.7989 37.7074 35.935C37.6805 35.9793 37.654 36.0239 37.6304 36.0682C36.4008 38.1693 34.1193 39.5822 31.5156 39.5822C29.5648 39.5822 27.7649 38.8171 26.4293 37.5874C26.2547 37.43 26.0892 37.2655 25.9357 37.0906C25.9266 37.0851 25.9179 37.0757 25.9121 37.0638C25.7256 36.8575 25.5543 36.6419 25.3917 36.4144V36.4105C25.3681 36.3782 25.3474 36.3458 25.3238 36.3135C25.4595 36.2311 25.5956 36.1328 25.7285 36.0294L25.7789 36.0116L25.9089 35.8823C25.9858 35.8164 26.0598 35.7462 26.1367 35.6751C26.2224 35.593 26.3081 35.5067 26.3937 35.4152C27.4045 37.0379 29.3669 38.0335 31.5156 38.0335C34.5625 38.0335 37.0421 35.5565 37.0421 32.5073C37.057 32.1194 37.0069 31.6817 36.9151 31.2237C36.8178 30.7508 36.6759 30.251 36.5133 29.7662C36.2592 29.0162 35.9576 28.2834 35.6945 27.6974C35.6686 27.6405 35.6447 27.5858 35.6214 27.5312L35.6111 27.5089C35.6088 27.5034 35.6066 27.4983 35.6043 27.4928C35.603 27.4895 35.6014 27.486 35.5998 27.4824C35.5988 27.4805 35.5978 27.4785 35.5969 27.4766L35.5943 27.4705C35.5704 27.4181 35.5484 27.3667 35.5277 27.3156C35.4178 27.0567 35.3283 26.8327 35.2594 26.6659C35.2578 26.6623 35.2558 26.6585 35.2542 26.6552C35.2529 26.6513 35.252 26.6478 35.2507 26.6442L35.2297 26.5941C35.2271 26.5886 35.2245 26.5835 35.2216 26.5783C35.198 26.5191 35.1773 26.4745 35.1595 26.4396C35.1566 26.4273 35.1508 26.418 35.145 26.4099C35.1408 26.3989 35.1369 26.3898 35.133 26.3821L35.1236 26.3643C35.1204 26.3585 35.1175 26.354 35.1152 26.3507L35.1191 26.3559C35.1175 26.3533 35.1165 26.351 35.1156 26.3494V26.3481L35.1159 26.3465C35.0231 26.2185 34.9255 26.0892 34.8266 25.9602C31.9022 22.1847 27.687 19.9317 23.555 19.9317C19.0609 19.9317 14.8432 22.1343 12.2743 25.8254C12.1738 25.9693 12.0762 26.1147 11.9837 26.2586L11.984 26.2589C11.9549 26.3022 11.9278 26.3465 11.9003 26.3898C11.889 26.4073 11.8777 26.4247 11.8664 26.4422C11.847 26.4752 11.8269 26.5078 11.8066 26.5411C11.7772 26.5899 11.7471 26.6397 11.718 26.6901C11.7028 26.7153 11.6879 26.7409 11.6727 26.7661C11.579 26.9274 11.4892 27.0874 11.4048 27.2461ZM25.7644 33.8035V33.8016C25.7582 33.8096 25.7524 33.819 25.7495 33.8284L25.7501 33.8277C25.753 33.8245 25.7585 33.8245 25.7644 33.8245V33.8313V33.829C25.7644 33.8271 25.7647 33.8252 25.7663 33.8245H25.7666H25.7673L25.7666 33.8171C25.766 33.8116 25.7647 33.8074 25.7644 33.8035ZM38.0975 29.9171C38.1014 29.9236 38.1036 29.9284 38.1062 29.9362C38.1169 29.9627 38.1276 29.9895 38.1379 30.0163L44.5822 23.9652L36.9674 9.11554H33.8572C35.4892 10.4538 36.5058 12.4961 36.5058 14.8412V25.6302C36.5058 25.7472 36.5042 25.8604 36.4997 25.968V25.9683C36.5007 25.9696 36.501 25.9709 36.5033 25.9735C36.5773 26.0798 36.6513 26.1891 36.724 26.298C36.9406 26.6268 37.1507 26.9691 37.3492 27.3163L38.0975 29.9171ZM13.6142 9.12557H10.0096L2.39493 23.9752L8.8172 30.0053C8.84726 29.9252 8.87926 29.8453 8.91223 29.7662C8.95942 29.6546 9.00662 29.5457 9.05995 29.439C9.06577 29.4271 9.06868 29.4216 9.07482 29.4096C9.07482 29.4096 9.07547 29.4096 9.07612 29.4093C9.07644 29.409 9.07644 29.4086 9.07644 29.4083V29.4067C9.31176 28.6028 9.614 27.8202 9.98153 27.0699C10.0371 26.9581 10.0953 26.8424 10.1548 26.7292C10.2776 26.4894 10.4137 26.247 10.5563 26.0032C10.5734 25.9748 10.5908 25.9454 10.608 25.9169V25.9166C10.6047 25.8238 10.6031 25.7298 10.6031 25.6302V14.8412C10.6031 12.4598 11.8835 10.5062 13.6142 9.12557ZM31.3497 9.11554H30.8687V9.12557H15.7363C13.514 10.0714 11.9517 12.2766 11.9517 14.8412V24.0259C14.8047 20.5966 19.0528 18.5825 23.555 18.5825C27.7649 18.5825 32.0292 20.681 35.1569 24.2454L35.1576 24.2464V14.8412C35.1576 12.2678 33.5843 10.0559 31.3497 9.11554Z" fill="#D73D8C"/>
</svg>
