<svg width="143" height="60" viewBox="0 0 143 60" fill="none" xmlns="http://www.w3.org/2000/svg">
<path d="M71.5 37L9.57919 54.25L133.421 54.25L71.5 37Z" fill="black" fill-opacity="0.08"/>
<path d="M8.23438 23.6406C8.23438 23.4427 8.3125 23.2708 8.46875 23.125C8.63542 22.9688 8.76042 22.8646 8.84375 22.8125C8.9375 22.75 9 22.7031 9.03125 22.6719C9.08333 23.6198 9.72396 24.0938 10.9531 24.0938C11.9219 24.0938 13.0521 23.7917 14.3438 23.1875C15.2604 22.7708 15.875 22.3438 16.1875 21.9062C16.2917 21.7708 16.3438 21.6615 16.3438 21.5781C16.3438 21.4844 16.3281 21.4115 16.2969 21.3594L9.8125 19.9062C9.625 19.8646 9.44271 19.776 9.26562 19.6406C8.94271 19.4115 8.78125 19.2031 8.78125 19.0156C8.78125 18.2969 9.29167 17.6458 10.3125 17.0625C11.4375 16.4271 12.9427 15.9479 14.8281 15.625C15.2552 15.5521 15.5729 15.5104 15.7812 15.5C15.8438 15.5208 15.9375 15.5417 16.0625 15.5625C16.1979 15.5729 16.3333 15.5938 16.4688 15.625C16.7917 15.6979 16.9271 15.8333 16.875 16.0312C16.875 16.3854 16.1979 16.6667 14.8438 16.875C13.0938 17.1354 12 17.3542 11.5625 17.5312C11.1354 17.7083 10.8229 17.8906 10.625 18.0781C10.4375 18.2656 10.3385 18.4896 10.3281 18.75C10.3281 18.8021 10.4479 18.8594 10.6875 18.9219C10.9271 18.9844 11.2135 19.0625 11.5469 19.1562C11.8802 19.2396 12.3125 19.3542 12.8438 19.5C14.1354 19.8542 15.7188 20.3021 17.5938 20.8438C17.6979 21.0729 17.75 21.2865 17.75 21.4844C17.75 22.0365 17.4271 22.5677 16.7812 23.0781C16.0521 23.651 15.0417 24.1354 13.75 24.5312C12.6771 24.8542 11.8229 25.0156 11.1875 25.0156C10.6562 25.0156 10.151 24.9219 9.67188 24.7344C9.19271 24.5469 8.83333 24.3646 8.59375 24.1875C8.35417 24.0104 8.23438 23.8281 8.23438 23.6406ZM24.6406 20.6875C24.4115 21.4479 24.2188 22.151 24.0625 22.7969C23.9167 23.4427 23.7708 23.9792 23.625 24.4062C23.3958 25.0208 23.1354 25.3281 22.8438 25.3281C22.6875 25.3281 22.5104 25.2552 22.3125 25.1094C21.8333 24.599 21.1562 23.4688 20.2812 21.7188C19.4271 20.0104 19 18.9427 19 18.5156C19 18.3281 19.0573 18.2135 19.1719 18.1719C19.2865 18.1198 19.4167 18.1146 19.5625 18.1562C19.9167 18.2604 20.1667 18.4219 20.3125 18.6406C20.3854 18.7448 20.474 18.9271 20.5781 19.1875L20.9688 20.1562C21.4062 21.25 21.8385 22.25 22.2656 23.1562C22.4948 22.8021 22.7135 22.3438 22.9219 21.7812L23.4062 20.4375C23.8229 19.2604 24.1979 18.6615 24.5312 18.6406C24.7917 18.474 25.5729 19.3958 26.875 21.4062C27.4271 22.2604 27.7708 22.7708 27.9062 22.9375C28 22.9375 28.1094 22.625 28.2344 22C28.3698 21.375 28.4844 20.849 28.5781 20.4219C28.6823 19.9844 28.8073 19.5781 28.9531 19.2031C29.2969 18.3281 29.6927 17.8906 30.1406 17.8906C30.2865 17.8906 30.3854 17.9427 30.4375 18.0469C30.5 18.1406 30.5312 18.2188 30.5312 18.2812C30.5312 18.3438 30.5312 18.3906 30.5312 18.4219C30.4062 18.776 30.276 19.1823 30.1406 19.6406C30.0052 20.0885 29.8594 20.5521 29.7031 21.0312C29.5573 21.5 29.4062 21.9688 29.25 22.4375C29.1042 22.8958 28.9583 23.3125 28.8125 23.6875C28.4688 24.5 28.1823 24.9375 27.9531 25C27.776 25.0833 27.4896 24.8802 27.0938 24.3906C26.9167 24.1615 26.7292 23.8906 26.5312 23.5781C26.3333 23.2656 26.125 22.9427 25.9062 22.6094C25.375 21.776 24.9531 21.1354 24.6406 20.6875ZM33.0469 17.6562C33.1823 19.6042 33.2969 21.8594 33.3906 24.4219C33.3281 24.7448 33.0781 24.9062 32.6406 24.9062C32.526 24.9062 32.4062 24.8854 32.2812 24.8438C32.1667 24.7917 32.0938 24.724 32.0625 24.6406V17.6562H33.0469ZM31.5938 15.5312C31.5938 15.1667 31.8073 14.9844 32.2344 14.9844C32.5156 14.9844 32.7448 15.0469 32.9219 15.1719C32.9531 15.2865 32.9688 15.401 32.9688 15.5156C32.9688 15.6198 32.9271 15.724 32.8438 15.8281C32.7604 15.9323 32.6354 15.9844 32.4688 15.9844C32.3021 15.9844 32.1354 15.9479 31.9688 15.875C31.8021 15.7917 31.6771 15.6771 31.5938 15.5312ZM35.5625 18.7344C36.9792 18.2448 38.2031 18 39.2344 18C40.5469 18 41.4219 18.3438 41.8594 19.0312C42.0573 19.3542 42.1562 19.7031 42.1562 20.0781C42.1562 20.599 41.9896 21.1354 41.6562 21.6875C41.3333 22.2396 40.901 22.7396 40.3594 23.1875C39.099 24.2188 37.5677 24.8594 35.7656 25.1094C35.7656 25.224 35.7656 25.4062 35.7656 25.6562C35.776 25.9167 35.7812 26.2031 35.7812 26.5156C35.7917 26.8281 35.7969 27.1615 35.7969 27.5156C35.8073 27.8698 35.8177 28.2083 35.8281 28.5312C35.8594 29.3333 35.8802 29.7917 35.8906 29.9062C35.9115 30.0208 35.9219 30.1146 35.9219 30.1875C35.9219 30.4479 35.8385 30.6406 35.6719 30.7656C35.5052 30.901 35.2865 30.9688 35.0156 30.9688C34.9635 30.9688 34.9115 30.9688 34.8594 30.9688L34.6094 18.4062C34.7031 18.2708 34.8281 18.2083 34.9844 18.2188C35.1406 18.2292 35.2656 18.2708 35.3594 18.3438C35.4531 18.4167 35.5208 18.5469 35.5625 18.7344ZM40.125 19.2812C39.7812 19.1042 39.4115 19.0156 39.0156 19.0156C38.6302 19.0156 38.2448 19.0521 37.8594 19.125C36.9844 19.2917 36.3385 19.6615 35.9219 20.2344C35.7344 20.5052 35.6406 20.8385 35.6406 21.2344C35.6406 21.276 35.6406 21.3177 35.6406 21.3594V24.0625C37.7865 23.5833 39.3073 22.9167 40.2031 22.0625C40.724 21.5729 40.9844 21.0677 40.9844 20.5469C40.9844 19.9948 40.6979 19.5729 40.125 19.2812ZM46.1562 23.9062C47.0729 23.9062 48.4531 23.4896 50.2969 22.6562C50.4115 22.6562 50.5052 22.6979 50.5781 22.7812C50.651 22.8542 50.6875 22.9427 50.6875 23.0469C50.2708 23.7552 49.474 24.3073 48.2969 24.7031C47.1198 25.099 46.0208 25.1667 45 24.9062C43.8438 24.6042 43.1406 23.9531 42.8906 22.9531C42.8698 22.7552 42.8594 22.4896 42.8594 22.1562C42.8594 21.8229 42.9427 21.3854 43.1094 20.8438C43.2865 20.2917 43.5833 19.7708 44 19.2812C44.4167 18.7917 44.9062 18.4062 45.4688 18.125C46.0312 17.8438 46.6302 17.7031 47.2656 17.7031C47.8698 17.7031 48.5469 17.9115 49.2969 18.3281C49.651 18.526 49.9323 18.75 50.1406 19C50.349 19.25 50.4531 19.5052 50.4531 19.7656C50.4531 19.8385 50.4479 19.9115 50.4375 19.9844C50.4167 20.6198 50.1094 21.0208 49.5156 21.1875C49.2552 21.2604 48.9531 21.2969 48.6094 21.2969L46.3594 21.2031C45.6094 21.2031 45.0365 21.3646 44.6406 21.6875C44.4115 21.8646 44.25 22.1302 44.1562 22.4844C44.4167 23.4323 45.0833 23.9062 46.1562 23.9062ZM48.9375 19.0781C48.7083 18.9115 48.4688 18.7917 48.2188 18.7188C47.9688 18.6458 47.7604 18.6094 47.5938 18.6094C47.4271 18.6094 47.1562 18.6667 46.7812 18.7812C46.4062 18.8854 46.0729 19.0052 45.7812 19.1406C45.0625 19.474 44.7031 19.8229 44.7031 20.1875C45.5365 20.2604 46.1615 20.2969 46.5781 20.2969C47.7344 20.2969 48.5156 20.1979 48.9219 20C49.1719 19.8958 49.2969 19.7656 49.2969 19.6094C49.2969 19.4219 49.1771 19.2448 48.9375 19.0781ZM57.9531 22.9219C57.9531 22.7552 57.9375 22.526 57.9062 22.2344C57.8854 21.9323 57.8646 21.6042 57.8438 21.25C57.8229 20.8958 57.8125 20.5365 57.8125 20.1719C57.8125 19.8073 57.8438 19.474 57.9062 19.1719C58.0417 18.4948 58.3229 18.1562 58.75 18.1562C59.0417 18.2396 59.2344 18.3438 59.3281 18.4688C59.4323 18.5938 59.4844 18.75 59.4844 18.9375C59.4844 19.1146 59.4375 19.3385 59.3438 19.6094C59 20.5156 58.8281 21.3333 58.8281 22.0625C58.8281 22.3021 58.8438 22.5573 58.875 22.8281C59.0417 23.526 59.6146 23.875 60.5938 23.875C61.1042 23.875 61.5885 23.7865 62.0469 23.6094C62.9219 23.2865 63.5156 22.9062 63.8281 22.4688C63.9219 21.9896 63.9688 21.5729 63.9688 21.2188C63.9688 20.8542 63.9531 20.5312 63.9219 20.25C63.901 19.9688 63.8698 19.6615 63.8281 19.3281C63.7969 18.9844 63.776 18.6094 63.7656 18.2031C63.901 18.1406 64.0312 18.1094 64.1562 18.1094C64.2917 18.1094 64.4271 18.1771 64.5625 18.3125C64.7083 18.4479 64.8281 18.7031 64.9219 19.0781C65.026 19.4531 65.0938 19.8958 65.125 20.4062C65.1562 20.9062 65.1719 21.4271 65.1719 21.9688C65.1823 22.5104 65.1875 23.0365 65.1875 23.5469C65.1875 24.0469 65.2083 24.4792 65.25 24.8438C65.125 24.9583 65.0052 25.0156 64.8906 25.0156C64.474 25.0156 64.1667 24.599 63.9688 23.7656C63.8333 23.8802 63.6042 24.0208 63.2812 24.1875C62.5938 24.5625 61.7812 24.8125 60.8438 24.9375C60.6667 24.9583 60.4688 24.9688 60.25 24.9688C60.0312 24.9688 59.7552 24.9271 59.4219 24.8438C59.099 24.7604 58.7917 24.5677 58.5 24.2656C58.2083 23.9635 58.026 23.5156 57.9531 22.9219ZM67.6562 18.7344C69.0729 18.2448 70.2969 18 71.3281 18C72.6406 18 73.5156 18.3438 73.9531 19.0312C74.151 19.3542 74.25 19.7031 74.25 20.0781C74.25 20.599 74.0833 21.1354 73.75 21.6875C73.4271 22.2396 72.9948 22.7396 72.4531 23.1875C71.1927 24.2188 69.6615 24.8594 67.8594 25.1094C67.8594 25.224 67.8594 25.4062 67.8594 25.6562C67.8698 25.9167 67.875 26.2031 67.875 26.5156C67.8854 26.8281 67.8906 27.1615 67.8906 27.5156C67.901 27.8698 67.9115 28.2083 67.9219 28.5312C67.9531 29.3333 67.974 29.7917 67.9844 29.9062C68.0052 30.0208 68.0156 30.1146 68.0156 30.1875C68.0156 30.4479 67.9323 30.6406 67.7656 30.7656C67.599 30.901 67.3802 30.9688 67.1094 30.9688C67.0573 30.9688 67.0052 30.9688 66.9531 30.9688L66.7031 18.4062C66.7969 18.2708 66.9219 18.2083 67.0781 18.2188C67.2344 18.2292 67.3594 18.2708 67.4531 18.3438C67.5469 18.4167 67.6146 18.5469 67.6562 18.7344ZM72.2188 19.2812C71.875 19.1042 71.5052 19.0156 71.1094 19.0156C70.724 19.0156 70.3385 19.0521 69.9531 19.125C69.0781 19.2917 68.4323 19.6615 68.0156 20.2344C67.8281 20.5052 67.7344 20.8385 67.7344 21.2344C67.7344 21.276 67.7344 21.3177 67.7344 21.3594V24.0625C69.8802 23.5833 71.401 22.9167 72.2969 22.0625C72.8177 21.5729 73.0781 21.0677 73.0781 20.5469C73.0781 19.9948 72.7917 19.5729 72.2188 19.2812ZM83.8281 23.5L83.8594 21C83.8594 20.6042 83.8229 20.2656 83.75 19.9844H81.3281L81.2969 18.9062H83.6406V14.875C83.6719 14.7812 83.7344 14.6875 83.8281 14.5938C83.974 14.4479 84.0938 14.375 84.1875 14.375C84.2917 14.375 84.3802 14.3854 84.4531 14.4062C84.526 14.4271 84.6042 14.5 84.6875 14.625C84.8542 15.3125 84.9375 16.349 84.9375 17.7344C84.9375 18.0781 84.9531 18.4167 84.9844 18.75C85.3177 18.7083 85.651 18.6875 85.9844 18.6875C85.9844 18.6875 86.2552 18.6875 86.7969 18.6875C86.9948 18.6875 87.1771 18.6771 87.3438 18.6562L87.2969 19.7812L85.0156 19.7188L85.0938 25.1094C84.9062 25.1927 84.7448 25.2344 84.6094 25.2344C84.0885 25.2344 83.8281 24.6562 83.8281 23.5ZM88.3281 22.0312C88.3281 20.8021 88.8594 19.8125 89.9219 19.0625C90.7656 18.4688 91.7812 18.1094 92.9688 17.9844C93.0312 17.9844 93.1771 17.9844 93.4062 17.9844C93.6354 17.9844 93.9427 18.0521 94.3281 18.1875C95.1823 18.4792 95.7656 18.9948 96.0781 19.7344C96.2031 20.026 96.2656 20.276 96.2656 20.4844C96.2656 20.6823 96.2604 20.8229 96.25 20.9062C96.25 22.2083 95.7552 23.2344 94.7656 23.9844C93.849 24.6719 92.7031 25.0156 91.3281 25.0156C90.3385 25.0156 89.5885 24.7865 89.0781 24.3281C88.5781 23.8698 88.3281 23.1042 88.3281 22.0312ZM89.4062 22.4062C89.4062 23.0521 89.5781 23.4896 89.9219 23.7188C90.1823 23.8854 90.6198 23.9688 91.2344 23.9688C91.849 23.9688 92.3906 23.9219 92.8594 23.8281C93.3281 23.7344 93.7448 23.5729 94.1094 23.3438C94.8906 22.8438 95.2812 22.0677 95.2812 21.0156C95.2812 20.3906 95.1146 19.8802 94.7812 19.4844C94.4167 19.0573 93.9375 18.8438 93.3438 18.8438C92.9375 18.9167 92.526 18.9948 92.1094 19.0781C91.7031 19.1615 91.3177 19.3229 90.9531 19.5625C90.1615 20.0729 89.6458 21.0208 89.4062 22.4062ZM103.156 23.6406C103.156 23.4427 103.234 23.2708 103.391 23.125C103.557 22.9688 103.682 22.8646 103.766 22.8125C103.859 22.75 103.922 22.7031 103.953 22.6719C104.005 23.6198 104.646 24.0938 105.875 24.0938C106.844 24.0938 107.974 23.7917 109.266 23.1875C110.182 22.7708 110.797 22.3438 111.109 21.9062C111.214 21.7708 111.266 21.6615 111.266 21.5781C111.266 21.4844 111.25 21.4115 111.219 21.3594L104.734 19.9062C104.547 19.8646 104.365 19.776 104.188 19.6406C103.865 19.4115 103.703 19.2031 103.703 19.0156C103.703 18.2969 104.214 17.6458 105.234 17.0625C106.359 16.4271 107.865 15.9479 109.75 15.625C110.177 15.5521 110.495 15.5104 110.703 15.5C110.766 15.5208 110.859 15.5417 110.984 15.5625C111.12 15.5729 111.255 15.5938 111.391 15.625C111.714 15.6979 111.849 15.8333 111.797 16.0312C111.797 16.3854 111.12 16.6667 109.766 16.875C108.016 17.1354 106.922 17.3542 106.484 17.5312C106.057 17.7083 105.745 17.8906 105.547 18.0781C105.359 18.2656 105.26 18.4896 105.25 18.75C105.25 18.8021 105.37 18.8594 105.609 18.9219C105.849 18.9844 106.135 19.0625 106.469 19.1562C106.802 19.2396 107.234 19.3542 107.766 19.5C109.057 19.8542 110.641 20.3021 112.516 20.8438C112.62 21.0729 112.672 21.2865 112.672 21.4844C112.672 22.0365 112.349 22.5677 111.703 23.0781C110.974 23.651 109.964 24.1354 108.672 24.5312C107.599 24.8542 106.745 25.0156 106.109 25.0156C105.578 25.0156 105.073 24.9219 104.594 24.7344C104.115 24.5469 103.755 24.3646 103.516 24.1875C103.276 24.0104 103.156 23.8281 103.156 23.6406ZM115.172 22.1562L115.25 23.5156C115.25 24.349 115.052 24.8542 114.656 25.0312C114.573 25.0625 114.474 25.0781 114.359 25.0781C114.245 25.0781 114.109 25.0521 113.953 25L113.969 19.1562C113.969 18.3125 113.917 17.4688 113.812 16.625C113.719 15.7708 113.672 14.9219 113.672 14.0781C113.672 13.7448 113.849 13.5781 114.203 13.5781H114.328C114.401 13.5781 114.448 13.5833 114.469 13.5938C114.625 14.2396 114.729 15.0208 114.781 15.9375C114.896 17.9688 115 19.3333 115.094 20.0312C115.271 19.9375 115.667 19.6719 116.281 19.2344C116.896 18.7969 117.391 18.4479 117.766 18.1875C118.141 17.9167 118.495 17.6667 118.828 17.4375C119.609 16.9271 120.099 16.6719 120.297 16.6719C120.464 16.6719 120.594 16.7708 120.688 16.9688C120.167 17.625 119.328 18.3542 118.172 19.1562C117.703 19.4792 117.234 19.8021 116.766 20.125C116.307 20.4375 115.885 20.7656 115.5 21.1094C116.198 21.2969 116.859 21.4948 117.484 21.7031C118.109 21.901 118.714 22.0833 119.297 22.25C120.641 22.6458 121.797 22.8698 122.766 22.9219C122.766 23.2031 122.74 23.3854 122.688 23.4688C122.594 23.6146 122.401 23.6979 122.109 23.7188H121.984C121.349 23.5417 120.505 23.3438 119.453 23.125C117.38 22.6979 115.953 22.375 115.172 22.1562ZM124.859 17.6562C124.995 19.6042 125.109 21.8594 125.203 24.4219C125.141 24.7448 124.891 24.9062 124.453 24.9062C124.339 24.9062 124.219 24.8854 124.094 24.8438C123.979 24.7917 123.906 24.724 123.875 24.6406V17.6562H124.859ZM123.406 15.5312C123.406 15.1667 123.62 14.9844 124.047 14.9844C124.328 14.9844 124.557 15.0469 124.734 15.1719C124.766 15.2865 124.781 15.401 124.781 15.5156C124.781 15.6198 124.74 15.724 124.656 15.8281C124.573 15.9323 124.448 15.9844 124.281 15.9844C124.115 15.9844 123.948 15.9479 123.781 15.875C123.615 15.7917 123.49 15.6771 123.406 15.5312ZM127.375 18.7344C128.792 18.2448 130.016 18 131.047 18C132.359 18 133.234 18.3438 133.672 19.0312C133.87 19.3542 133.969 19.7031 133.969 20.0781C133.969 20.599 133.802 21.1354 133.469 21.6875C133.146 22.2396 132.714 22.7396 132.172 23.1875C130.911 24.2188 129.38 24.8594 127.578 25.1094C127.578 25.224 127.578 25.4062 127.578 25.6562C127.589 25.9167 127.594 26.2031 127.594 26.5156C127.604 26.8281 127.609 27.1615 127.609 27.5156C127.62 27.8698 127.63 28.2083 127.641 28.5312C127.672 29.3333 127.693 29.7917 127.703 29.9062C127.724 30.0208 127.734 30.1146 127.734 30.1875C127.734 30.4479 127.651 30.6406 127.484 30.7656C127.318 30.901 127.099 30.9688 126.828 30.9688C126.776 30.9688 126.724 30.9688 126.672 30.9688L126.422 18.4062C126.516 18.2708 126.641 18.2083 126.797 18.2188C126.953 18.2292 127.078 18.2708 127.172 18.3438C127.266 18.4167 127.333 18.5469 127.375 18.7344ZM131.938 19.2812C131.594 19.1042 131.224 19.0156 130.828 19.0156C130.443 19.0156 130.057 19.0521 129.672 19.125C128.797 19.2917 128.151 19.6615 127.734 20.2344C127.547 20.5052 127.453 20.8385 127.453 21.2344C127.453 21.276 127.453 21.3177 127.453 21.3594V24.0625C129.599 23.5833 131.12 22.9167 132.016 22.0625C132.536 21.5729 132.797 21.0677 132.797 20.5469C132.797 19.9948 132.51 19.5729 131.938 19.2812Z" fill="black" fill-opacity="0.24"/>
</svg>
