<svg width="90" height="41" viewBox="0 0 90 41" fill="none" xmlns="http://www.w3.org/2000/svg">
<path d="M3.75633e-07 22.5L17.25 38.5215L17.25 6.47853L3.75633e-07 22.5Z" fill="black" fill-opacity="0.08"/>
<path d="M23.2344 23.6406C23.2344 23.4427 23.3125 23.2708 23.4688 23.125C23.6354 22.9688 23.7604 22.8646 23.8438 22.8125C23.9375 22.75 24 22.7031 24.0312 22.6719C24.0833 23.6198 24.724 24.0938 25.9531 24.0938C26.9219 24.0938 28.0521 23.7917 29.3438 23.1875C30.2604 22.7708 30.875 22.3438 31.1875 21.9062C31.2917 21.7708 31.3438 21.6615 31.3438 21.5781C31.3438 21.4844 31.3281 21.4115 31.2969 21.3594L24.8125 19.9062C24.625 19.8646 24.4427 19.776 24.2656 19.6406C23.9427 19.4115 23.7812 19.2031 23.7812 19.0156C23.7812 18.2969 24.2917 17.6458 25.3125 17.0625C26.4375 16.4271 27.9427 15.9479 29.8281 15.625C30.2552 15.5521 30.5729 15.5104 30.7812 15.5C30.8438 15.5208 30.9375 15.5417 31.0625 15.5625C31.1979 15.5729 31.3333 15.5938 31.4688 15.625C31.7917 15.6979 31.9271 15.8333 31.875 16.0312C31.875 16.3854 31.1979 16.6667 29.8438 16.875C28.0938 17.1354 27 17.3542 26.5625 17.5312C26.1354 17.7083 25.8229 17.8906 25.625 18.0781C25.4375 18.2656 25.3385 18.4896 25.3281 18.75C25.3281 18.8021 25.4479 18.8594 25.6875 18.9219C25.9271 18.9844 26.2135 19.0625 26.5469 19.1562C26.8802 19.2396 27.3125 19.3542 27.8438 19.5C29.1354 19.8542 30.7188 20.3021 32.5938 20.8438C32.6979 21.0729 32.75 21.2865 32.75 21.4844C32.75 22.0365 32.4271 22.5677 31.7812 23.0781C31.0521 23.651 30.0417 24.1354 28.75 24.5312C27.6771 24.8542 26.8229 25.0156 26.1875 25.0156C25.6562 25.0156 25.151 24.9219 24.6719 24.7344C24.1927 24.5469 23.8333 24.3646 23.5938 24.1875C23.3542 24.0104 23.2344 23.8281 23.2344 23.6406ZM39.6406 20.6875C39.4115 21.4479 39.2188 22.151 39.0625 22.7969C38.9167 23.4427 38.7708 23.9792 38.625 24.4062C38.3958 25.0208 38.1354 25.3281 37.8438 25.3281C37.6875 25.3281 37.5104 25.2552 37.3125 25.1094C36.8333 24.599 36.1562 23.4688 35.2812 21.7188C34.4271 20.0104 34 18.9427 34 18.5156C34 18.3281 34.0573 18.2135 34.1719 18.1719C34.2865 18.1198 34.4167 18.1146 34.5625 18.1562C34.9167 18.2604 35.1667 18.4219 35.3125 18.6406C35.3854 18.7448 35.474 18.9271 35.5781 19.1875L35.9688 20.1562C36.4062 21.25 36.8385 22.25 37.2656 23.1562C37.4948 22.8021 37.7135 22.3438 37.9219 21.7812L38.4062 20.4375C38.8229 19.2604 39.1979 18.6615 39.5312 18.6406C39.7917 18.474 40.5729 19.3958 41.875 21.4062C42.4271 22.2604 42.7708 22.7708 42.9062 22.9375C43 22.9375 43.1094 22.625 43.2344 22C43.3698 21.375 43.4844 20.849 43.5781 20.4219C43.6823 19.9844 43.8073 19.5781 43.9531 19.2031C44.2969 18.3281 44.6927 17.8906 45.1406 17.8906C45.2865 17.8906 45.3854 17.9427 45.4375 18.0469C45.5 18.1406 45.5312 18.2188 45.5312 18.2812C45.5312 18.3438 45.5312 18.3906 45.5312 18.4219C45.4062 18.776 45.276 19.1823 45.1406 19.6406C45.0052 20.0885 44.8594 20.5521 44.7031 21.0312C44.5573 21.5 44.4062 21.9688 44.25 22.4375C44.1042 22.8958 43.9583 23.3125 43.8125 23.6875C43.4688 24.5 43.1823 24.9375 42.9531 25C42.776 25.0833 42.4896 24.8802 42.0938 24.3906C41.9167 24.1615 41.7292 23.8906 41.5312 23.5781C41.3333 23.2656 41.125 22.9427 40.9062 22.6094C40.375 21.776 39.9531 21.1354 39.6406 20.6875ZM48.0469 17.6562C48.1823 19.6042 48.2969 21.8594 48.3906 24.4219C48.3281 24.7448 48.0781 24.9062 47.6406 24.9062C47.526 24.9062 47.4062 24.8854 47.2812 24.8438C47.1667 24.7917 47.0938 24.724 47.0625 24.6406V17.6562H48.0469ZM46.5938 15.5312C46.5938 15.1667 46.8073 14.9844 47.2344 14.9844C47.5156 14.9844 47.7448 15.0469 47.9219 15.1719C47.9531 15.2865 47.9688 15.401 47.9688 15.5156C47.9688 15.6198 47.9271 15.724 47.8438 15.8281C47.7604 15.9323 47.6354 15.9844 47.4688 15.9844C47.3021 15.9844 47.1354 15.9479 46.9688 15.875C46.8021 15.7917 46.6771 15.6771 46.5938 15.5312ZM50.5625 18.7344C51.9792 18.2448 53.2031 18 54.2344 18C55.5469 18 56.4219 18.3438 56.8594 19.0312C57.0573 19.3542 57.1562 19.7031 57.1562 20.0781C57.1562 20.599 56.9896 21.1354 56.6562 21.6875C56.3333 22.2396 55.901 22.7396 55.3594 23.1875C54.099 24.2188 52.5677 24.8594 50.7656 25.1094C50.7656 25.224 50.7656 25.4062 50.7656 25.6562C50.776 25.9167 50.7812 26.2031 50.7812 26.5156C50.7917 26.8281 50.7969 27.1615 50.7969 27.5156C50.8073 27.8698 50.8177 28.2083 50.8281 28.5312C50.8594 29.3333 50.8802 29.7917 50.8906 29.9062C50.9115 30.0208 50.9219 30.1146 50.9219 30.1875C50.9219 30.4479 50.8385 30.6406 50.6719 30.7656C50.5052 30.901 50.2865 30.9688 50.0156 30.9688C49.9635 30.9688 49.9115 30.9688 49.8594 30.9688L49.6094 18.4062C49.7031 18.2708 49.8281 18.2083 49.9844 18.2188C50.1406 18.2292 50.2656 18.2708 50.3594 18.3438C50.4531 18.4167 50.5208 18.5469 50.5625 18.7344ZM55.125 19.2812C54.7812 19.1042 54.4115 19.0156 54.0156 19.0156C53.6302 19.0156 53.2448 19.0521 52.8594 19.125C51.9844 19.2917 51.3385 19.6615 50.9219 20.2344C50.7344 20.5052 50.6406 20.8385 50.6406 21.2344C50.6406 21.276 50.6406 21.3177 50.6406 21.3594V24.0625C52.7865 23.5833 54.3073 22.9167 55.2031 22.0625C55.724 21.5729 55.9844 21.0677 55.9844 20.5469C55.9844 19.9948 55.6979 19.5729 55.125 19.2812ZM61.1562 23.9062C62.0729 23.9062 63.4531 23.4896 65.2969 22.6562C65.4115 22.6562 65.5052 22.6979 65.5781 22.7812C65.651 22.8542 65.6875 22.9427 65.6875 23.0469C65.2708 23.7552 64.474 24.3073 63.2969 24.7031C62.1198 25.099 61.0208 25.1667 60 24.9062C58.8438 24.6042 58.1406 23.9531 57.8906 22.9531C57.8698 22.7552 57.8594 22.4896 57.8594 22.1562C57.8594 21.8229 57.9427 21.3854 58.1094 20.8438C58.2865 20.2917 58.5833 19.7708 59 19.2812C59.4167 18.7917 59.9062 18.4062 60.4688 18.125C61.0312 17.8438 61.6302 17.7031 62.2656 17.7031C62.8698 17.7031 63.5469 17.9115 64.2969 18.3281C64.651 18.526 64.9323 18.75 65.1406 19C65.349 19.25 65.4531 19.5052 65.4531 19.7656C65.4531 19.8385 65.4479 19.9115 65.4375 19.9844C65.4167 20.6198 65.1094 21.0208 64.5156 21.1875C64.2552 21.2604 63.9531 21.2969 63.6094 21.2969L61.3594 21.2031C60.6094 21.2031 60.0365 21.3646 59.6406 21.6875C59.4115 21.8646 59.25 22.1302 59.1562 22.4844C59.4167 23.4323 60.0833 23.9062 61.1562 23.9062ZM63.9375 19.0781C63.7083 18.9115 63.4688 18.7917 63.2188 18.7188C62.9688 18.6458 62.7604 18.6094 62.5938 18.6094C62.4271 18.6094 62.1562 18.6667 61.7812 18.7812C61.4062 18.8854 61.0729 19.0052 60.7812 19.1406C60.0625 19.474 59.7031 19.8229 59.7031 20.1875C60.5365 20.2604 61.1615 20.2969 61.5781 20.2969C62.7344 20.2969 63.5156 20.1979 63.9219 20C64.1719 19.8958 64.2969 19.7656 64.2969 19.6094C64.2969 19.4219 64.1771 19.2448 63.9375 19.0781Z" fill="black" fill-opacity="0.24"/>
<path d="M90 22.5L72.75 6.47853L72.75 38.5215L90 22.5Z" fill="black" fill-opacity="0.08"/>
</svg>
