<svg width="182" height="54" viewBox="0 0 182 54" fill="none" xmlns="http://www.w3.org/2000/svg">
<path d="M91.5 23L153.421 5.75H29.5792L91.5 23Z" fill="black" fill-opacity="0.08"/>
<path d="M0.234375 37.6406C0.234375 37.4427 0.3125 37.2708 0.46875 37.125C0.635417 36.9688 0.760417 36.8646 0.84375 36.8125C0.9375 36.75 1 36.7031 1.03125 36.6719C1.08333 37.6198 1.72396 38.0938 2.95312 38.0938C3.92188 38.0938 5.05208 37.7917 6.34375 37.1875C7.26042 36.7708 7.875 36.3438 8.1875 35.9062C8.29167 35.7708 8.34375 35.6615 8.34375 35.5781C8.34375 35.4844 8.32812 35.4115 8.29688 35.3594L1.8125 33.9062C1.625 33.8646 1.44271 33.776 1.26562 33.6406C0.942708 33.4115 0.78125 33.2031 0.78125 33.0156C0.78125 32.2969 1.29167 31.6458 2.3125 31.0625C3.4375 30.4271 4.94271 29.9479 6.82812 29.625C7.25521 29.5521 7.57292 29.5104 7.78125 29.5C7.84375 29.5208 7.9375 29.5417 8.0625 29.5625C8.19792 29.5729 8.33333 29.5938 8.46875 29.625C8.79167 29.6979 8.92708 29.8333 8.875 30.0312C8.875 30.3854 8.19792 30.6667 6.84375 30.875C5.09375 31.1354 4 31.3542 3.5625 31.5312C3.13542 31.7083 2.82292 31.8906 2.625 32.0781C2.4375 32.2656 2.33854 32.4896 2.32812 32.75C2.32812 32.8021 2.44792 32.8594 2.6875 32.9219C2.92708 32.9844 3.21354 33.0625 3.54688 33.1562C3.88021 33.2396 4.3125 33.3542 4.84375 33.5C6.13542 33.8542 7.71875 34.3021 9.59375 34.8438C9.69792 35.0729 9.75 35.2865 9.75 35.4844C9.75 36.0365 9.42708 36.5677 8.78125 37.0781C8.05208 37.651 7.04167 38.1354 5.75 38.5312C4.67708 38.8542 3.82292 39.0156 3.1875 39.0156C2.65625 39.0156 2.15104 38.9219 1.67188 38.7344C1.19271 38.5469 0.833333 38.3646 0.59375 38.1875C0.354167 38.0104 0.234375 37.8281 0.234375 37.6406ZM16.6406 34.6875C16.4115 35.4479 16.2188 36.151 16.0625 36.7969C15.9167 37.4427 15.7708 37.9792 15.625 38.4062C15.3958 39.0208 15.1354 39.3281 14.8438 39.3281C14.6875 39.3281 14.5104 39.2552 14.3125 39.1094C13.8333 38.599 13.1562 37.4688 12.2812 35.7188C11.4271 34.0104 11 32.9427 11 32.5156C11 32.3281 11.0573 32.2135 11.1719 32.1719C11.2865 32.1198 11.4167 32.1146 11.5625 32.1562C11.9167 32.2604 12.1667 32.4219 12.3125 32.6406C12.3854 32.7448 12.474 32.9271 12.5781 33.1875L12.9688 34.1562C13.4062 35.25 13.8385 36.25 14.2656 37.1562C14.4948 36.8021 14.7135 36.3438 14.9219 35.7812L15.4062 34.4375C15.8229 33.2604 16.1979 32.6615 16.5312 32.6406C16.7917 32.474 17.5729 33.3958 18.875 35.4062C19.4271 36.2604 19.7708 36.7708 19.9062 36.9375C20 36.9375 20.1094 36.625 20.2344 36C20.3698 35.375 20.4844 34.849 20.5781 34.4219C20.6823 33.9844 20.8073 33.5781 20.9531 33.2031C21.2969 32.3281 21.6927 31.8906 22.1406 31.8906C22.2865 31.8906 22.3854 31.9427 22.4375 32.0469C22.5 32.1406 22.5312 32.2188 22.5312 32.2812C22.5312 32.3438 22.5312 32.3906 22.5312 32.4219C22.4062 32.776 22.276 33.1823 22.1406 33.6406C22.0052 34.0885 21.8594 34.5521 21.7031 35.0312C21.5573 35.5 21.4062 35.9688 21.25 36.4375C21.1042 36.8958 20.9583 37.3125 20.8125 37.6875C20.4688 38.5 20.1823 38.9375 19.9531 39C19.776 39.0833 19.4896 38.8802 19.0938 38.3906C18.9167 38.1615 18.7292 37.8906 18.5312 37.5781C18.3333 37.2656 18.125 36.9427 17.9062 36.6094C17.375 35.776 16.9531 35.1354 16.6406 34.6875ZM25.0469 31.6562C25.1823 33.6042 25.2969 35.8594 25.3906 38.4219C25.3281 38.7448 25.0781 38.9062 24.6406 38.9062C24.526 38.9062 24.4062 38.8854 24.2812 38.8438C24.1667 38.7917 24.0938 38.724 24.0625 38.6406V31.6562H25.0469ZM23.5938 29.5312C23.5938 29.1667 23.8073 28.9844 24.2344 28.9844C24.5156 28.9844 24.7448 29.0469 24.9219 29.1719C24.9531 29.2865 24.9688 29.401 24.9688 29.5156C24.9688 29.6198 24.9271 29.724 24.8438 29.8281C24.7604 29.9323 24.6354 29.9844 24.4688 29.9844C24.3021 29.9844 24.1354 29.9479 23.9688 29.875C23.8021 29.7917 23.6771 29.6771 23.5938 29.5312ZM27.5625 32.7344C28.9792 32.2448 30.2031 32 31.2344 32C32.5469 32 33.4219 32.3438 33.8594 33.0312C34.0573 33.3542 34.1562 33.7031 34.1562 34.0781C34.1562 34.599 33.9896 35.1354 33.6562 35.6875C33.3333 36.2396 32.901 36.7396 32.3594 37.1875C31.099 38.2188 29.5677 38.8594 27.7656 39.1094C27.7656 39.224 27.7656 39.4062 27.7656 39.6562C27.776 39.9167 27.7812 40.2031 27.7812 40.5156C27.7917 40.8281 27.7969 41.1615 27.7969 41.5156C27.8073 41.8698 27.8177 42.2083 27.8281 42.5312C27.8594 43.3333 27.8802 43.7917 27.8906 43.9062C27.9115 44.0208 27.9219 44.1146 27.9219 44.1875C27.9219 44.4479 27.8385 44.6406 27.6719 44.7656C27.5052 44.901 27.2865 44.9688 27.0156 44.9688C26.9635 44.9688 26.9115 44.9688 26.8594 44.9688L26.6094 32.4062C26.7031 32.2708 26.8281 32.2083 26.9844 32.2188C27.1406 32.2292 27.2656 32.2708 27.3594 32.3438C27.4531 32.4167 27.5208 32.5469 27.5625 32.7344ZM32.125 33.2812C31.7812 33.1042 31.4115 33.0156 31.0156 33.0156C30.6302 33.0156 30.2448 33.0521 29.8594 33.125C28.9844 33.2917 28.3385 33.6615 27.9219 34.2344C27.7344 34.5052 27.6406 34.8385 27.6406 35.2344C27.6406 35.276 27.6406 35.3177 27.6406 35.3594V38.0625C29.7865 37.5833 31.3073 36.9167 32.2031 36.0625C32.724 35.5729 32.9844 35.0677 32.9844 34.5469C32.9844 33.9948 32.6979 33.5729 32.125 33.2812ZM38.1562 37.9062C39.0729 37.9062 40.4531 37.4896 42.2969 36.6562C42.4115 36.6562 42.5052 36.6979 42.5781 36.7812C42.651 36.8542 42.6875 36.9427 42.6875 37.0469C42.2708 37.7552 41.474 38.3073 40.2969 38.7031C39.1198 39.099 38.0208 39.1667 37 38.9062C35.8438 38.6042 35.1406 37.9531 34.8906 36.9531C34.8698 36.7552 34.8594 36.4896 34.8594 36.1562C34.8594 35.8229 34.9427 35.3854 35.1094 34.8438C35.2865 34.2917 35.5833 33.7708 36 33.2812C36.4167 32.7917 36.9062 32.4062 37.4688 32.125C38.0312 31.8438 38.6302 31.7031 39.2656 31.7031C39.8698 31.7031 40.5469 31.9115 41.2969 32.3281C41.651 32.526 41.9323 32.75 42.1406 33C42.349 33.25 42.4531 33.5052 42.4531 33.7656C42.4531 33.8385 42.4479 33.9115 42.4375 33.9844C42.4167 34.6198 42.1094 35.0208 41.5156 35.1875C41.2552 35.2604 40.9531 35.2969 40.6094 35.2969L38.3594 35.2031C37.6094 35.2031 37.0365 35.3646 36.6406 35.6875C36.4115 35.8646 36.25 36.1302 36.1562 36.4844C36.4167 37.4323 37.0833 37.9062 38.1562 37.9062ZM40.9375 33.0781C40.7083 32.9115 40.4688 32.7917 40.2188 32.7188C39.9688 32.6458 39.7604 32.6094 39.5938 32.6094C39.4271 32.6094 39.1562 32.6667 38.7812 32.7812C38.4062 32.8854 38.0729 33.0052 37.7812 33.1406C37.0625 33.474 36.7031 33.8229 36.7031 34.1875C37.5365 34.2604 38.1615 34.2969 38.5781 34.2969C39.7344 34.2969 40.5156 34.1979 40.9219 34C41.1719 33.8958 41.2969 33.7656 41.2969 33.6094C41.2969 33.4219 41.1771 33.2448 40.9375 33.0781ZM51.25 29.4062C52.0208 29.1354 53.0417 29 54.3125 29C56.6354 29 58.224 29.5729 59.0781 30.7188C59.4115 31.1562 59.5781 31.7135 59.5781 32.3906C59.5885 32.4844 59.5938 32.5781 59.5938 32.6719C59.5938 33.7135 58.9844 34.7708 57.7656 35.8438C56.651 36.8542 55.276 37.6667 53.6406 38.2812C52.5573 38.6979 51.6615 38.9062 50.9531 38.9062C50.6615 38.9062 50.4115 38.8646 50.2031 38.7812V29.0312H50.4219C50.6615 29.0312 50.8542 29.0729 51 29.1562C51.1458 29.2292 51.2292 29.3125 51.25 29.4062ZM58.5312 32.5156C58.4375 31.5885 57.9219 30.901 56.9844 30.4531C56.2865 30.1198 55.4115 29.9531 54.3594 29.9531L54.0781 29.9688C53.0885 29.9896 52.2344 30.1458 51.5156 30.4375V37.8906C52.2448 37.8906 53.1562 37.625 54.25 37.0938C56.1458 36.1562 57.4479 35.0677 58.1562 33.8281C58.4062 33.3906 58.5312 32.9531 58.5312 32.5156ZM60.7969 36.0312C60.7969 34.8021 61.3281 33.8125 62.3906 33.0625C63.2344 32.4688 64.25 32.1094 65.4375 31.9844C65.5 31.9844 65.6458 31.9844 65.875 31.9844C66.1042 31.9844 66.4115 32.0521 66.7969 32.1875C67.651 32.4792 68.2344 32.9948 68.5469 33.7344C68.6719 34.026 68.7344 34.276 68.7344 34.4844C68.7344 34.6823 68.7292 34.8229 68.7188 34.9062C68.7188 36.2083 68.224 37.2344 67.2344 37.9844C66.3177 38.6719 65.1719 39.0156 63.7969 39.0156C62.8073 39.0156 62.0573 38.7865 61.5469 38.3281C61.0469 37.8698 60.7969 37.1042 60.7969 36.0312ZM61.875 36.4062C61.875 37.0521 62.0469 37.4896 62.3906 37.7188C62.651 37.8854 63.0885 37.9688 63.7031 37.9688C64.3177 37.9688 64.8594 37.9219 65.3281 37.8281C65.7969 37.7344 66.2135 37.5729 66.5781 37.3438C67.3594 36.8438 67.75 36.0677 67.75 35.0156C67.75 34.3906 67.5833 33.8802 67.25 33.4844C66.8854 33.0573 66.4062 32.8438 65.8125 32.8438C65.4062 32.9167 64.9948 32.9948 64.5781 33.0781C64.1719 33.1615 63.7865 33.3229 63.4219 33.5625C62.6302 34.0729 62.1146 35.0208 61.875 36.4062ZM75.3438 34.6875C75.1146 35.4479 74.9219 36.151 74.7656 36.7969C74.6198 37.4427 74.474 37.9792 74.3281 38.4062C74.099 39.0208 73.8385 39.3281 73.5469 39.3281C73.3906 39.3281 73.2135 39.2552 73.0156 39.1094C72.5365 38.599 71.8594 37.4688 70.9844 35.7188C70.1302 34.0104 69.7031 32.9427 69.7031 32.5156C69.7031 32.3281 69.7604 32.2135 69.875 32.1719C69.9896 32.1198 70.1198 32.1146 70.2656 32.1562C70.6198 32.2604 70.8698 32.4219 71.0156 32.6406C71.0885 32.7448 71.1771 32.9271 71.2812 33.1875L71.6719 34.1562C72.1094 35.25 72.5417 36.25 72.9688 37.1562C73.1979 36.8021 73.4167 36.3438 73.625 35.7812L74.1094 34.4375C74.526 33.2604 74.901 32.6615 75.2344 32.6406C75.4948 32.474 76.276 33.3958 77.5781 35.4062C78.1302 36.2604 78.474 36.7708 78.6094 36.9375C78.7031 36.9375 78.8125 36.625 78.9375 36C79.0729 35.375 79.1875 34.849 79.2812 34.4219C79.3854 33.9844 79.5104 33.5781 79.6562 33.2031C80 32.3281 80.3958 31.8906 80.8438 31.8906C80.9896 31.8906 81.0885 31.9427 81.1406 32.0469C81.2031 32.1406 81.2344 32.2188 81.2344 32.2812C81.2344 32.3438 81.2344 32.3906 81.2344 32.4219C81.1094 32.776 80.9792 33.1823 80.8438 33.6406C80.7083 34.0885 80.5625 34.5521 80.4062 35.0312C80.2604 35.5 80.1094 35.9688 79.9531 36.4375C79.8073 36.8958 79.6615 37.3125 79.5156 37.6875C79.1719 38.5 78.8854 38.9375 78.6562 39C78.4792 39.0833 78.1927 38.8802 77.7969 38.3906C77.6198 38.1615 77.4323 37.8906 77.2344 37.5781C77.0365 37.2656 76.8281 36.9427 76.6094 36.6094C76.0781 35.776 75.6562 35.1354 75.3438 34.6875ZM88.4375 35.5781C88.4375 34.3385 88.3698 33.4271 88.2344 32.8438C88.3177 32.6875 88.1927 32.6094 87.8594 32.6094C87.5052 32.6094 87.0469 32.6979 86.4844 32.875C85.9219 33.0521 85.4635 33.2292 85.1094 33.4062C84.2656 33.8125 83.7969 34.2083 83.7031 34.5938V38.8438H82.6562C82.5208 38.4896 82.4531 37.4948 82.4531 35.8594C82.4531 34.401 82.4792 33.3281 82.5312 32.6406C82.5938 31.9531 82.6406 31.5625 82.6719 31.4688C82.9427 31.2917 83.1615 31.2031 83.3281 31.2031C83.5885 31.2031 83.7188 31.5104 83.7188 32.125C83.7188 32.3646 83.7031 32.599 83.6719 32.8281C83.651 33.0469 83.6406 33.1979 83.6406 33.2812C85.3281 32.0417 86.6354 31.4219 87.5625 31.4219C88.6146 31.4219 89.2135 32.2708 89.3594 33.9688C89.4219 34.5625 89.4531 35.3854 89.4531 36.4375L89.4375 37.6719C89.4375 38.1302 89.4479 38.5729 89.4688 39C89.3646 39.0625 89.2812 39.0938 89.2188 39.0938C89.1875 39.0833 89.1198 39.0677 89.0156 39.0469C88.9115 39.026 88.776 39.0104 88.6094 39C88.5052 38.5833 88.4479 38.1615 88.4375 37.7344C88.4271 37.2969 88.4219 36.8958 88.4219 36.5312L88.4375 35.5781ZM99.1094 37.5L99.1406 35C99.1406 34.6042 99.1042 34.2656 99.0312 33.9844H96.6094L96.5781 32.9062H98.9219V28.875C98.9531 28.7812 99.0156 28.6875 99.1094 28.5938C99.2552 28.4479 99.375 28.375 99.4688 28.375C99.5729 28.375 99.6615 28.3854 99.7344 28.4062C99.8073 28.4271 99.8854 28.5 99.9688 28.625C100.135 29.3125 100.219 30.349 100.219 31.7344C100.219 32.0781 100.234 32.4167 100.266 32.75C100.599 32.7083 100.932 32.6875 101.266 32.6875C101.266 32.6875 101.536 32.6875 102.078 32.6875C102.276 32.6875 102.458 32.6771 102.625 32.6562L102.578 33.7812L100.297 33.7188L100.375 39.1094C100.188 39.1927 100.026 39.2344 99.8906 39.2344C99.3698 39.2344 99.1094 38.6562 99.1094 37.5ZM103.609 36.0312C103.609 34.8021 104.141 33.8125 105.203 33.0625C106.047 32.4688 107.062 32.1094 108.25 31.9844C108.312 31.9844 108.458 31.9844 108.688 31.9844C108.917 31.9844 109.224 32.0521 109.609 32.1875C110.464 32.4792 111.047 32.9948 111.359 33.7344C111.484 34.026 111.547 34.276 111.547 34.4844C111.547 34.6823 111.542 34.8229 111.531 34.9062C111.531 36.2083 111.036 37.2344 110.047 37.9844C109.13 38.6719 107.984 39.0156 106.609 39.0156C105.62 39.0156 104.87 38.7865 104.359 38.3281C103.859 37.8698 103.609 37.1042 103.609 36.0312ZM104.688 36.4062C104.688 37.0521 104.859 37.4896 105.203 37.7188C105.464 37.8854 105.901 37.9688 106.516 37.9688C107.13 37.9688 107.672 37.9219 108.141 37.8281C108.609 37.7344 109.026 37.5729 109.391 37.3438C110.172 36.8438 110.562 36.0677 110.562 35.0156C110.562 34.3906 110.396 33.8802 110.062 33.4844C109.698 33.0573 109.219 32.8438 108.625 32.8438C108.219 32.9167 107.807 32.9948 107.391 33.0781C106.984 33.1615 106.599 33.3229 106.234 33.5625C105.443 34.0729 104.927 35.0208 104.688 36.4062ZM119.672 36.4062C119.089 36.3229 118.797 36.1875 118.797 36C118.797 35.8646 118.896 35.7083 119.094 35.5312C119.292 35.3542 119.49 35.1719 119.688 34.9844C119.688 34.3594 119.594 33.6615 119.406 32.8906C119.219 32.1094 119.083 31.5052 119 31.0781C118.917 30.651 118.875 30.2604 118.875 29.9062C118.875 29.5521 118.927 29.3281 119.031 29.2344C119.146 29.1406 119.307 29.0938 119.516 29.0938C119.724 29.0938 119.859 29.125 119.922 29.1875C119.984 29.2396 120.026 29.3073 120.047 29.3906C120.068 29.474 120.078 29.5625 120.078 29.6562C120.089 29.75 120.109 29.8385 120.141 29.9219C120.193 30.1198 120.354 30.2188 120.625 30.2188C121.323 30.2083 122.021 30.151 122.719 30.0469C123.417 29.9323 124.109 29.8177 124.797 29.7031C126.172 29.474 127.135 29.3594 127.688 29.3594C128.25 29.3594 128.693 29.375 129.016 29.4062C129.026 29.6042 129.047 29.776 129.078 29.9219C129.109 30.0677 129.125 30.1875 129.125 30.2812C129.125 30.4583 128.953 30.5208 128.609 30.4688C123.161 30.6667 120.438 31.0729 120.438 31.6875C120.438 32.3646 120.484 32.9479 120.578 33.4375C120.672 33.9167 120.74 34.2188 120.781 34.3438C120.833 34.4688 120.891 34.5312 120.953 34.5312C121.547 34.5312 122.146 34.4792 122.75 34.375C123.365 34.2708 123.974 34.1615 124.578 34.0469C125.193 33.9219 125.807 33.8073 126.422 33.7031C127.036 33.599 127.641 33.5469 128.234 33.5469C128.245 33.5469 128.25 33.5885 128.25 33.6719C128.25 33.7448 128.245 33.8281 128.234 33.9219C128.203 34.1719 128.203 34.2969 128.234 34.2969C127.786 34.5469 126.974 34.75 125.797 34.9062C125.286 34.9792 124.766 35.0469 124.234 35.1094C123.703 35.1719 123.214 35.2396 122.766 35.3125C121.734 35.4583 121.135 35.651 120.969 35.8906L120.797 38.9531C120.682 39.0677 120.552 39.125 120.406 39.125L119.828 39.0781C119.776 39.0781 119.724 39.0781 119.672 39.0781V36.4062ZM135.844 36.4062C135.062 37.6354 134.021 38.3958 132.719 38.6875C132.417 38.75 132.141 38.7812 131.891 38.7812C131.651 38.7812 131.448 38.7812 131.281 38.7812C131.125 38.7708 130.948 38.7448 130.75 38.7031C130.552 38.6615 130.37 38.5938 130.203 38.5C129.818 38.2812 129.625 37.974 129.625 37.5781C129.583 37.3906 129.562 37.1823 129.562 36.9531C129.562 36.7135 129.615 36.401 129.719 36.0156C129.823 35.6302 130.01 35.2135 130.281 34.7656C130.562 34.3177 130.901 33.9062 131.297 33.5312C132.12 32.7396 133.01 32.2292 133.969 32C134.25 31.9375 134.505 31.9062 134.734 31.9062C134.974 31.9062 135.188 31.9219 135.375 31.9531C135.979 31.9531 136.385 32.3646 136.594 33.1875C136.729 33.7083 136.807 34.4375 136.828 35.375C136.859 36.3021 136.885 37.0208 136.906 37.5312C136.938 38.0312 137.005 38.4896 137.109 38.9062H136.188C136.146 38.625 136.115 38.375 136.094 38.1562C136.073 37.9375 136.052 37.7344 136.031 37.5469C135.979 37.1094 135.917 36.7292 135.844 36.4062ZM135.781 33.9844C135.781 33.3802 135.484 33.0781 134.891 33.0781C134.818 33.0677 134.745 33.0625 134.672 33.0625C133.911 33.0625 133.109 33.4271 132.266 34.1562C131.87 34.4896 131.531 34.8646 131.25 35.2812C130.833 35.875 130.625 36.4062 130.625 36.875C130.625 37.4896 130.979 37.8542 131.688 37.9688C132.625 37.9479 133.521 37.5208 134.375 36.6875C134.74 36.3229 135.042 35.9271 135.281 35.5C135.615 34.9271 135.781 34.4219 135.781 33.9844ZM137.984 32.9531C137.964 32.901 137.953 32.8438 137.953 32.7812C137.953 32.7083 137.979 32.6146 138.031 32.5C138.083 32.3854 138.156 32.2865 138.25 32.2031C138.354 32.1198 138.464 32.0833 138.578 32.0938C138.703 32.0938 138.802 32.1667 138.875 32.3125L141.5 37.1875C141.583 37.0625 141.714 36.8333 141.891 36.5C142.078 36.1562 142.286 35.7708 142.516 35.3438C142.755 34.9167 143 34.474 143.25 34.0156C143.51 33.5469 143.75 33.1198 143.969 32.7344C144.469 31.849 144.766 31.4062 144.859 31.4062C145.078 31.4062 145.234 31.4896 145.328 31.6562C145.432 31.8125 145.484 31.9323 145.484 32.0156C145.484 32.099 145.484 32.1562 145.484 32.1875C144.901 33.4583 144.359 34.6302 143.859 35.7031C143.37 36.776 143.042 37.474 142.875 37.7969C142.719 38.1094 142.578 38.3594 142.453 38.5469C142.234 38.8698 142.021 39.0312 141.812 39.0312C141.604 39.0312 141.365 38.8698 141.094 38.5469C140.823 38.2135 140.516 37.7708 140.172 37.2188C139.568 36.2188 138.839 34.7969 137.984 32.9531ZM146.531 36.0312C146.531 34.8021 147.062 33.8125 148.125 33.0625C148.969 32.4688 149.984 32.1094 151.172 31.9844C151.234 31.9844 151.38 31.9844 151.609 31.9844C151.839 31.9844 152.146 32.0521 152.531 32.1875C153.385 32.4792 153.969 32.9948 154.281 33.7344C154.406 34.026 154.469 34.276 154.469 34.4844C154.469 34.6823 154.464 34.8229 154.453 34.9062C154.453 36.2083 153.958 37.2344 152.969 37.9844C152.052 38.6719 150.906 39.0156 149.531 39.0156C148.542 39.0156 147.792 38.7865 147.281 38.3281C146.781 37.8698 146.531 37.1042 146.531 36.0312ZM147.609 36.4062C147.609 37.0521 147.781 37.4896 148.125 37.7188C148.385 37.8854 148.823 37.9688 149.438 37.9688C150.052 37.9688 150.594 37.9219 151.062 37.8281C151.531 37.7344 151.948 37.5729 152.312 37.3438C153.094 36.8438 153.484 36.0677 153.484 35.0156C153.484 34.3906 153.318 33.8802 152.984 33.4844C152.62 33.0573 152.141 32.8438 151.547 32.8438C151.141 32.9167 150.729 32.9948 150.312 33.0781C149.906 33.1615 149.521 33.3229 149.156 33.5625C148.365 34.0729 147.849 35.0208 147.609 36.4062ZM162.812 33.2969C162.375 32.9844 161.812 32.8281 161.125 32.8281C160.479 32.8281 159.88 32.9479 159.328 33.1875C158.286 33.625 157.573 34.1875 157.188 34.875C157.021 35.1875 156.938 35.5208 156.938 35.875C156.938 35.9375 156.938 36.1146 156.938 36.4062C156.938 36.6875 156.99 37.0729 157.094 37.5625C157.198 38.0417 157.25 38.5312 157.25 39.0312C157.031 39.0417 156.854 39.0677 156.719 39.1094C156.583 39.151 156.469 39.1719 156.375 39.1719C156.281 39.1719 156.198 39.1302 156.125 39.0469C156.062 38.9635 155.99 38.8021 155.906 38.5625C155.896 38.5 155.875 38.3229 155.844 38.0312C155.812 37.7396 155.771 37.3854 155.719 36.9688C155.677 36.5521 155.625 36.099 155.562 35.6094C155.51 35.1094 155.458 34.6198 155.406 34.1406C155.292 33.099 155.203 32.3333 155.141 31.8438C155.141 31.5938 155.323 31.4688 155.688 31.4688C155.906 31.4688 156.078 31.5625 156.203 31.75C156.328 31.9271 156.427 32.1354 156.5 32.375C156.573 32.6042 156.62 32.8333 156.641 33.0625C156.672 33.2917 156.698 33.4531 156.719 33.5469C158.094 32.3177 159.802 31.7031 161.844 31.7031C162.073 31.7031 162.312 31.7083 162.562 31.7188C162.625 31.7083 162.703 31.7031 162.797 31.7031C162.891 31.7031 162.984 31.7656 163.078 31.8906C163.193 32.0365 163.25 32.2135 163.25 32.4219C163.25 32.9427 163.104 33.2344 162.812 33.2969ZM165.375 31.6562C165.51 33.6042 165.625 35.8594 165.719 38.4219C165.656 38.7448 165.406 38.9062 164.969 38.9062C164.854 38.9062 164.734 38.8854 164.609 38.8438C164.495 38.7917 164.422 38.724 164.391 38.6406V31.6562H165.375ZM163.922 29.5312C163.922 29.1667 164.135 28.9844 164.562 28.9844C164.844 28.9844 165.073 29.0469 165.25 29.1719C165.281 29.2865 165.297 29.401 165.297 29.5156C165.297 29.6198 165.255 29.724 165.172 29.8281C165.089 29.9323 164.964 29.9844 164.797 29.9844C164.63 29.9844 164.464 29.9479 164.297 29.875C164.13 29.7917 164.005 29.6771 163.922 29.5312ZM168.75 37.5L168.781 35C168.781 34.6042 168.745 34.2656 168.672 33.9844H166.25L166.219 32.9062H168.562V28.875C168.594 28.7812 168.656 28.6875 168.75 28.5938C168.896 28.4479 169.016 28.375 169.109 28.375C169.214 28.375 169.302 28.3854 169.375 28.4062C169.448 28.4271 169.526 28.5 169.609 28.625C169.776 29.3125 169.859 30.349 169.859 31.7344C169.859 32.0781 169.875 32.4167 169.906 32.75C170.24 32.7083 170.573 32.6875 170.906 32.6875C170.906 32.6875 171.177 32.6875 171.719 32.6875C171.917 32.6875 172.099 32.6771 172.266 32.6562L172.219 33.7812L169.938 33.7188L170.016 39.1094C169.828 39.1927 169.667 39.2344 169.531 39.2344C169.01 39.2344 168.75 38.6562 168.75 37.5ZM176.047 37.9062C176.964 37.9062 178.344 37.4896 180.188 36.6562C180.302 36.6562 180.396 36.6979 180.469 36.7812C180.542 36.8542 180.578 36.9427 180.578 37.0469C180.161 37.7552 179.365 38.3073 178.188 38.7031C177.01 39.099 175.911 39.1667 174.891 38.9062C173.734 38.6042 173.031 37.9531 172.781 36.9531C172.76 36.7552 172.75 36.4896 172.75 36.1562C172.75 35.8229 172.833 35.3854 173 34.8438C173.177 34.2917 173.474 33.7708 173.891 33.2812C174.307 32.7917 174.797 32.4062 175.359 32.125C175.922 31.8438 176.521 31.7031 177.156 31.7031C177.76 31.7031 178.438 31.9115 179.188 32.3281C179.542 32.526 179.823 32.75 180.031 33C180.24 33.25 180.344 33.5052 180.344 33.7656C180.344 33.8385 180.339 33.9115 180.328 33.9844C180.307 34.6198 180 35.0208 179.406 35.1875C179.146 35.2604 178.844 35.2969 178.5 35.2969L176.25 35.2031C175.5 35.2031 174.927 35.3646 174.531 35.6875C174.302 35.8646 174.141 36.1302 174.047 36.4844C174.307 37.4323 174.974 37.9062 176.047 37.9062ZM178.828 33.0781C178.599 32.9115 178.359 32.7917 178.109 32.7188C177.859 32.6458 177.651 32.6094 177.484 32.6094C177.318 32.6094 177.047 32.6667 176.672 32.7812C176.297 32.8854 175.964 33.0052 175.672 33.1406C174.953 33.474 174.594 33.8229 174.594 34.1875C175.427 34.2604 176.052 34.2969 176.469 34.2969C177.625 34.2969 178.406 34.1979 178.812 34C179.062 33.8958 179.188 33.7656 179.188 33.6094C179.188 33.4219 179.068 33.2448 178.828 33.0781Z" fill="black" fill-opacity="0.24"/>
</svg>
